<svg xmlns="http://www.w3.org/2000/svg" viewBox="0 0 76.21 28.34"><defs><style>.cls-1{fill:#00b3eb;}</style></defs><g id="Layer_2" data-name="Layer 2"><g id="Layer_1-2" data-name="Layer 1"><path class="cls-1" d="M72.51,0,33.65,5.92S27.36,6.59,25,9.51a11.13,11.13,0,0,1-5.27,3.65L0,17.15,1.54,27.27l20-2.05a11.11,11.11,0,0,1,6.11,1.91C30.81,29.21,37,28,37,28l38.86-5.92S77.8,10.48,72.51,0ZM40.33,21.79l-1.74.29-.3-1.76.83-.14c.93-.16,1.22-.34,1.07-1.27l0-.3L39,17.79l-2.35.39L37,20.53l.86-.14.29,1.76-2.81.47-1.66-10,3.44-.57.29,1.74L35.93,14l.4,2.41,2.33-.39.7-.95-.08-.46c-.15-.87-.43-1.09-1.31-1l-.12,0L37.56,12l.86-.14a2.15,2.15,0,0,1,2.69,1.83l.2,1.22a.87.87,0,0,1,0,.45l-.95,1.31,1.55,1.09a1,1,0,0,1,.16.42l.17,1A2.28,2.28,0,0,1,40.33,21.79Zm3.21-.54,1.78-10.56.39-.07,1.13,2.17-1.23,8.12ZM51.08,20l-1.25-2.41-3.37.56.27-1.94,2.19-.36-2.77-5.3L48,10.23l5.11,9.42Zm1.62-7.5C52.28,10,54.06,9.06,56,8.74c.8-.13,1.92-.21,2.66-.27l.3,1.78s-1.59.09-2.58.25c-1.73.29-1.84,1-1.56,2.66l.33,2-1.95.32Zm5,6.56c-1.94.32-3.91.06-4.34-2.48l-.1-.66,1.95-.32c.25,1.43.58,2,2.28,1.69,1-.17,2.55-.61,2.55-.61l.29,1.77C59.64,18.63,58.52,18.93,57.72,19.06Zm5.87-1.15-2,.33L60,8.25l2-.33.68,4.13.15,0,2.43-4.64L67.35,7,63.6,14.3l-.6.1Zm3.25-.54-2.93-2.76.88-1.71,4.3,4.1Z"/></g></g></svg>