<svg xmlns="http://www.w3.org/2000/svg" viewBox="0 0 48.68 56.21"><defs><style>.cls-1{fill:#212121;stroke:#00b3eb;stroke-miterlimit:10;stroke-width:2px;}.cls-2{fill:#fff;}</style></defs><g id="Layer_2" data-name="Layer 2"><g id="Layer_1-2" data-name="Layer 1"><polygon class="cls-1" points="47.68 41.58 47.68 14.63 24.34 1.16 1 14.63 1 41.58 24.34 55.05 47.68 41.58"/><path class="cls-2" d="M15.14,25.27a1.22,1.22,0,0,1,1.24,1.26v.69a.56.56,0,0,1-.05.25l-.65.63.76.75a.52.52,0,0,1,0,.24v.59a1.24,1.24,0,0,1-1.24,1.25H12.62V25.27Zm.62,1.35c0-.53-.35-.79-.87-.79H13.24v2h1.9l.62-.61Zm.11,2.49-.73-.72h-1.9v2H15c.53,0,.88-.24.88-.77Z"/><path class="cls-2" d="M19.6,30.93V25.27h3.28v.56H20.22v2h2.27v.56H20.22v2H23v.56Z"/><path class="cls-2" d="M25.79,30.93V25.27h3.28v.56H26.41v2h2.27v.56H26.41v2h2.73v.56Z"/><path class="cls-2" d="M35.62,27.18a1.24,1.24,0,0,1-.87,1.21l1.3,2.54h-.68L34.1,28.44H32.6v2.49H32V25.27h2.4a1.22,1.22,0,0,1,1.24,1.26ZM35,26.62c0-.53-.35-.79-.87-.79H32.6v2.05h1.55c.53,0,.85-.25.85-.77Z"/></g></g></svg>