<svg xmlns="http://www.w3.org/2000/svg" viewBox="0 0 46.68 53.9"><defs><style>.cls-1{fill:#212121;}.cls-2{fill:#fff;}</style></defs><g id="Layer_2" data-name="Layer 2"><g id="Layer_1-2" data-name="Layer 1"><polygon class="cls-1" points="46.68 40.42 46.68 13.47 23.34 0 0 13.47 0 40.42 23.34 53.9 46.68 40.42"/><path class="cls-2" d="M14.14,24.12a1.22,1.22,0,0,1,1.24,1.25v.7a.52.52,0,0,1-.05.24l-.65.64.76.74a.56.56,0,0,1,.05.25v.58a1.24,1.24,0,0,1-1.24,1.26H11.62V24.12Zm.62,1.35c0-.53-.35-.79-.87-.79H12.24v2h1.9l.62-.6ZM14.87,28l-.73-.72h-1.9v2H14c.53,0,.88-.24.88-.77Z"/><path class="cls-2" d="M18.6,29.78V24.12h3.28v.56H19.22v2h2.27v.56H19.22v2H22v.56Z"/><path class="cls-2" d="M24.79,29.78V24.12h3.28v.56H25.41v2h2.27v.56H25.41v2h2.73v.56Z"/><path class="cls-2" d="M34.62,26a1.22,1.22,0,0,1-.87,1.2l1.3,2.55h-.68l-1.27-2.5H31.6v2.5H31V24.12h2.4a1.22,1.22,0,0,1,1.24,1.25ZM34,25.47c0-.53-.35-.79-.87-.79H31.6v2h1.55c.53,0,.85-.24.85-.77Z"/></g></g></svg>