<svg xmlns="http://www.w3.org/2000/svg" viewBox="0 0 22.02 21.44"><defs><style>.cls-1{fill:#605f5f;opacity:0.4;}</style></defs><g id="Layer_2" data-name="Layer 2"><g id="Layer_1-2" data-name="Layer 1"><path class="cls-1" d="M5.46,0V5.82H4.59A4.76,4.76,0,0,0,0,10.72a4.76,4.76,0,0,0,4.59,4.91h.87v1.65a4.17,4.17,0,0,0,4.17,4.16h8.22A4.17,4.17,0,0,0,22,17.28V0ZM5.22,14.63H4.59A3.79,3.79,0,0,1,.93,10.72a3.79,3.79,0,0,1,3.66-3.9h.63ZM21,17.28a3.17,3.17,0,0,1-3.17,3.16H9.63a3.17,3.17,0,0,1-3.17-3.16V1H21Z"/></g></g></svg>