<svg xmlns="http://www.w3.org/2000/svg" viewBox="0 0 22.81 37.71"><defs><style>.cls-1{fill:#fec425;}.cls-2{fill:none;stroke:#00b3eb;stroke-miterlimit:10;}.cls-3{fill:#fffefa;}</style></defs><g id="Layer_2" data-name="Layer 2"><g id="Layer_1-2" data-name="Layer 1"><path class="cls-1" d="M2.68,13.63a21.26,21.26,0,0,0,4.51,8c7.33,8.24,8.88,15,8.88,15l6.74-2.4S19.7,28,20.15,17c0,0,.25-5.09-1.8-8.93L2.41,13.72"/><path class="cls-1" d="M9.85,7.85a0,0,0,0,0,0,.05.06.06,0,0,0,.07,0A.1.1,0,0,0,10,7.84a.08.08,0,0,0-.05-.09.07.07,0,0,0-.1,0s0,.08.07.07a.05.05,0,0,0,0-.09s0,0-.06,0a.14.14,0,0,0-.14.07A.11.11,0,0,0,9.79,8a.13.13,0,0,0,.15-.06A.26.26,0,0,0,10,7.74s0-.08-.05-.11a.17.17,0,0,0-.14,0c-.06,0-.12,0-.14.11a.29.29,0,0,0,0,.09.22.22,0,0,0,.09.1A.12.12,0,0,0,9.9,8l0,0A.24.24,0,0,0,10,7.74c0-.06-.09-.09-.15-.12h0s0,0,0,0a.43.43,0,0,0-.06.18A.16.16,0,0,0,9.85,8,.29.29,0,0,0,10,8a.13.13,0,0,0,.1-.06.14.14,0,0,0,0-.09A.29.29,0,0,0,10,7.62l-.09,0a.28.28,0,0,0-.18,0,.21.21,0,0,0-.1.23A.27.27,0,0,0,9.81,8a.31.31,0,0,0,.26,0,.1.1,0,0,0,0,0,.16.16,0,0,0,0-.09A.27.27,0,0,0,10,7.6a.32.32,0,0,0-.28,0,.17.17,0,0,0-.14.15"/><path class="cls-1" d="M9.62,4.78c-.08,0-.15.09-.11.16A.2.2,0,0,0,9.74,5,.32.32,0,0,0,10,4.74a.28.28,0,0,0-.18-.3.24.24,0,0,0-.29.17.21.21,0,0,0,.22.23.18.18,0,0,0,.1-.29.28.28,0,0,0-.2-.06.47.47,0,0,0-.46.24.34.34,0,0,0,.25.44.49.49,0,0,0,.5-.2.83.83,0,0,0,.14-.55.42.42,0,0,0-.13-.34.51.51,0,0,0-.45,0c-.2.06-.42.16-.46.36a.51.51,0,0,0,.07.31.8.8,0,0,0,.28.32.42.42,0,0,0,.42,0A.57.57,0,0,0,9.94,5a.62.62,0,0,0,.22-.56c-.05-.2-.27-.31-.46-.38a.15.15,0,0,0-.11,0s-.06.06-.08.09a1.44,1.44,0,0,0-.18.6.52.52,0,0,0,.31.5.79.79,0,0,0,.4,0A.45.45,0,0,0,10.35,5a.45.45,0,0,0,0-.28.94.94,0,0,0-.3-.68A1,1,0,0,0,9.8,4,.92.92,0,0,0,9.21,4a.66.66,0,0,0-.31.73.83.83,0,0,0,.58.58,1.12,1.12,0,0,0,.84-.12.65.65,0,0,0,.18-.15.56.56,0,0,0,.1-.28A1,1,0,0,0,10.2,4a1.12,1.12,0,0,0-.91-.15c-.22.07-.45.24-.45.47"/><path class="cls-1" d="M13.49,5.79s-.05,0,0,0,0,0,.08,0a.12.12,0,0,0,.08-.09.1.1,0,0,0-.06-.1c-.05,0-.1,0-.1.06a.07.07,0,0,0,.07.08s.07-.07,0-.1,0,0-.06,0-.14,0-.16.08a.12.12,0,0,0,.08.15.18.18,0,0,0,.18-.07.3.3,0,0,0,.05-.19s0-.09-.05-.11a.18.18,0,0,0-.16,0c-.06,0-.14,0-.15.12a.14.14,0,0,0,0,.11.27.27,0,0,0,.1.11.14.14,0,0,0,.14,0l0,0a.21.21,0,0,0,.08-.19.25.25,0,0,0-.16-.14h0s0,0,0,0a.74.74,0,0,0-.07.21.18.18,0,0,0,.11.17.34.34,0,0,0,.14,0,.17.17,0,0,0,.1-.06.12.12,0,0,0,0-.1c0-.09,0-.19-.1-.23a.17.17,0,0,0-.1,0,.28.28,0,0,0-.2,0,.24.24,0,0,0-.1.26.29.29,0,0,0,.2.2.39.39,0,0,0,.28-.05.18.18,0,0,0,.07,0,.16.16,0,0,0,0-.09.31.31,0,0,0-.14-.28.38.38,0,0,0-.31-.06c-.08,0-.16.09-.15.17"/><line class="cls-2" x1="1.1" y1="13.9" x2="17.22" y2="8.15"/><path class="cls-2" d="M19,17.18c-.45,11.13,2.69,17.44,2.69,17.44l-6.81,2.43s-1.57-6.87-9-15.2a21.46,21.46,0,0,1-4.56-8A18.75,18.75,0,0,1,.83,4.56L12,.56A20.09,20.09,0,0,1,19,17.18Z"/><path class="cls-3" d="M11.88,22s-.05,0,0,.05a.06.06,0,0,0,.07,0A.08.08,0,0,0,12,22a.07.07,0,0,0-.05-.09.07.07,0,0,0-.09,0,.06.06,0,0,0,.07.07A.07.07,0,0,0,12,22a.08.08,0,0,0-.07,0,.15.15,0,0,0-.14.07.11.11,0,0,0,.08.14.15.15,0,0,0,.16-.06.33.33,0,0,0,0-.17.15.15,0,0,0,0-.11.17.17,0,0,0-.14,0c-.06,0-.13,0-.14.11a.1.1,0,0,0,0,.09.22.22,0,0,0,.09.1.12.12,0,0,0,.13,0l0,0a.19.19,0,0,0,.07-.18c0-.06-.08-.09-.14-.12h0s0,0,0,0a.43.43,0,0,0-.06.18.17.17,0,0,0,.1.16.25.25,0,0,0,.12,0,.13.13,0,0,0,.1-.06.25.25,0,0,0,0-.09.3.3,0,0,0-.1-.21l-.08,0a.31.31,0,0,0-.19,0,.23.23,0,0,0-.09.23.24.24,0,0,0,.18.18.3.3,0,0,0,.26,0l.06,0,0-.09a.3.3,0,0,0-.13-.25.32.32,0,0,0-.28-.05.17.17,0,0,0-.14.15"/><path class="cls-3" d="M16.3,20a0,0,0,0,0,0,.06s0,0,.07,0a.08.08,0,0,0,.07-.08.08.08,0,0,0-.05-.09s-.09,0-.09,0,0,.08.06.07a.05.05,0,0,0,0-.09H16.3a.13.13,0,0,0-.14.07.12.12,0,0,0,.08.14.15.15,0,0,0,.15-.07.26.26,0,0,0,.05-.17.1.1,0,0,0-.05-.1s-.09,0-.13,0-.13.05-.15.11a.36.36,0,0,0,0,.1s.05.08.09.1a.15.15,0,0,0,.13,0l0,0a.23.23,0,0,0,.07-.17.2.2,0,0,0-.15-.12h0s0,0,0,0a.42.42,0,0,0-.06.19.16.16,0,0,0,.09.15.29.29,0,0,0,.13,0,.16.16,0,0,0,.1-.05.14.14,0,0,0,0-.09c0-.08,0-.17-.09-.21s-.06,0-.09,0a.28.28,0,0,0-.18,0,.19.19,0,0,0-.09.23.27.27,0,0,0,.18.18.4.4,0,0,0,.26,0,.12.12,0,0,0,.05-.05.11.11,0,0,0,0-.08.3.3,0,0,0-.12-.26.35.35,0,0,0-.28-.05.18.18,0,0,0-.14.15"/><path class="cls-3" d="M15.35,23.61c-.08,0-.15.09-.11.16a.23.23,0,0,0,.24.06.32.32,0,0,0,.23-.27.27.27,0,0,0-.18-.29.23.23,0,0,0-.29.16.21.21,0,0,0,.22.24.18.18,0,0,0,.1-.29.28.28,0,0,0-.2-.06.47.47,0,0,0-.46.24.35.35,0,0,0,.25.44.48.48,0,0,0,.5-.21.8.8,0,0,0,.14-.55.4.4,0,0,0-.13-.33.51.51,0,0,0-.45,0c-.2.07-.42.16-.46.36a.52.52,0,0,0,.07.32.75.75,0,0,0,.29.32.43.43,0,0,0,.41,0,.88.88,0,0,0,.15-.12.63.63,0,0,0,.22-.56c-.05-.2-.27-.31-.46-.39a.17.17,0,0,0-.1,0,.12.12,0,0,0-.08.09,1.45,1.45,0,0,0-.19.6.51.51,0,0,0,.31.49.78.78,0,0,0,.4,0,.45.45,0,0,0,.31-.18.48.48,0,0,0,0-.29.88.88,0,0,0-.3-.67.71.71,0,0,0-.28-.09,1,1,0,0,0-.59.05.68.68,0,0,0-.31.74.85.85,0,0,0,.58.58,1.12,1.12,0,0,0,.84-.12.54.54,0,0,0,.18-.15.56.56,0,0,0,.1-.28,1,1,0,0,0-.4-.82,1.05,1.05,0,0,0-.91-.15c-.22.06-.45.24-.45.47"/><path class="cls-3" d="M10.05,17.83c-.08,0-.15.09-.1.16a.18.18,0,0,0,.23.06.34.34,0,0,0,.24-.26.28.28,0,0,0-.19-.3.25.25,0,0,0-.29.17.21.21,0,0,0,.22.23.18.18,0,0,0,.1-.29.28.28,0,0,0-.2-.06.48.48,0,0,0-.46.24.37.37,0,0,0,.25.45.54.54,0,0,0,.51-.21,1,1,0,0,0,.14-.55.42.42,0,0,0-.14-.33.48.48,0,0,0-.45,0c-.19.06-.42.16-.46.36a.51.51,0,0,0,.07.31.84.84,0,0,0,.29.33.45.45,0,0,0,.42,0,.53.53,0,0,0,.14-.12.6.6,0,0,0,.22-.56c-.05-.2-.26-.31-.46-.38a.12.12,0,0,0-.1,0,.2.2,0,0,0-.08.1,1.52,1.52,0,0,0-.19.59.51.51,0,0,0,.31.5.69.69,0,0,0,.4,0,.47.47,0,0,0,.32-.18.53.53,0,0,0,0-.28.88.88,0,0,0-.3-.68.84.84,0,0,0-.28-.09,1,1,0,0,0-.59.06.67.67,0,0,0-.31.74.81.81,0,0,0,.59.57,1.1,1.1,0,0,0,.83-.12.7.7,0,0,0,.19-.15.55.55,0,0,0,.09-.28.94.94,0,0,0-.4-.82,1.11,1.11,0,0,0-.91-.15c-.22.07-.45.24-.45.48"/><path class="cls-3" d="M17.38,28.05c-.08,0-.15.09-.11.16a.2.2,0,0,0,.23.06.34.34,0,0,0,.24-.26.28.28,0,0,0-.18-.3.23.23,0,0,0-.29.17.2.2,0,0,0,.22.23.18.18,0,0,0,.1-.29.28.28,0,0,0-.2-.06.46.46,0,0,0-.46.24.34.34,0,0,0,.25.44.5.5,0,0,0,.5-.2.83.83,0,0,0,.14-.55.42.42,0,0,0-.13-.34.51.51,0,0,0-.45,0c-.2.06-.42.16-.46.36a.51.51,0,0,0,.07.31.8.8,0,0,0,.28.32.42.42,0,0,0,.42,0,.57.57,0,0,0,.15-.12.64.64,0,0,0,.22-.56c-.05-.2-.27-.31-.46-.38a.15.15,0,0,0-.11,0s-.06.06-.08.09a1.44,1.44,0,0,0-.18.6.52.52,0,0,0,.31.5.75.75,0,0,0,.39,0,.45.45,0,0,0,.32-.18.39.39,0,0,0,0-.28.87.87,0,0,0-.3-.68.86.86,0,0,0-.27-.09.92.92,0,0,0-.59.06.65.65,0,0,0-.31.73.81.81,0,0,0,.58.58,1.1,1.1,0,0,0,.83-.12.58.58,0,0,0,.19-.15.56.56,0,0,0,.1-.28,1,1,0,0,0-.4-.82,1.12,1.12,0,0,0-.91-.15c-.23.07-.46.24-.45.47"/><path class="cls-3" d="M16.23,14.31c-.08,0-.15.09-.11.16a.2.2,0,0,0,.23.06.31.31,0,0,0,.24-.26.28.28,0,0,0-.18-.3.23.23,0,0,0-.29.17.21.21,0,0,0,.22.23.18.18,0,0,0,.1-.29.28.28,0,0,0-.2-.06.47.47,0,0,0-.46.24.34.34,0,0,0,.25.44.49.49,0,0,0,.5-.2.83.83,0,0,0,.14-.55.42.42,0,0,0-.13-.34.51.51,0,0,0-.45,0c-.2.06-.42.16-.46.36a.51.51,0,0,0,.07.31.75.75,0,0,0,.29.32.4.4,0,0,0,.41,0,.88.88,0,0,0,.15-.12.62.62,0,0,0,.22-.56c-.05-.2-.27-.31-.46-.38a.14.14,0,0,0-.11,0,.16.16,0,0,0-.07.09,1.45,1.45,0,0,0-.19.6.52.52,0,0,0,.31.5.78.78,0,0,0,.4,0,.35.35,0,0,0,.34-.46.9.9,0,0,0-.3-.68,1.09,1.09,0,0,0-.87,0,.66.66,0,0,0-.31.73.85.85,0,0,0,.58.58,1.12,1.12,0,0,0,.84-.12.54.54,0,0,0,.18-.15.56.56,0,0,0,.1-.28,1,1,0,0,0-.4-.82,1.12,1.12,0,0,0-.91-.15c-.22.06-.45.24-.45.47"/><path class="cls-3" d="M16.76,32s-.05,0,0,0a.06.06,0,0,0,.08,0,.11.11,0,0,0,.08-.09.09.09,0,0,0-.06-.1.08.08,0,0,0-.1.06s0,.08.08.08a.06.06,0,0,0,0-.1.08.08,0,0,0-.07,0,.17.17,0,0,0-.16.08.13.13,0,0,0,.09.15.17.17,0,0,0,.17-.07.3.3,0,0,0,.05-.19.12.12,0,0,0-.05-.11.16.16,0,0,0-.15,0c-.07,0-.14.05-.16.12a.2.2,0,0,0,0,.11.26.26,0,0,0,.1.11.17.17,0,0,0,.14,0l.05,0a.2.2,0,0,0,.07-.19c0-.07-.09-.11-.15-.14h0s0,0,0,0a.51.51,0,0,0-.06.2.17.17,0,0,0,.11.17.19.19,0,0,0,.13,0A.16.16,0,0,0,17,32s0-.06,0-.09,0-.19-.1-.23l-.1,0a.34.34,0,0,0-.2,0,.24.24,0,0,0-.11.26.27.27,0,0,0,.2.19.37.37,0,0,0,.29,0,.15.15,0,0,0,.06-.05.16.16,0,0,0,0-.09.33.33,0,0,0-.13-.29.38.38,0,0,0-.31-.05c-.08,0-.16.08-.16.17"/><path class="cls-3" d="M13.38,19.43s-.05,0,0,.05.05,0,.08,0a.12.12,0,0,0,.08-.09.1.1,0,0,0-.07-.1.07.07,0,0,0-.09.06.07.07,0,0,0,.07.08.06.06,0,0,0,0-.1s0,0-.06,0-.14,0-.16.08a.12.12,0,0,0,.08.15.18.18,0,0,0,.18-.07.25.25,0,0,0,0-.19.14.14,0,0,0,0-.11.18.18,0,0,0-.16,0c-.06,0-.14,0-.15.12a.14.14,0,0,0,0,.11.35.35,0,0,0,.1.11.17.17,0,0,0,.14,0l.05,0a.21.21,0,0,0,.08-.19.25.25,0,0,0-.16-.14s0,0,0,0,0,0,0,0a.53.53,0,0,0-.07.2.17.17,0,0,0,.11.17.22.22,0,0,0,.14,0,.14.14,0,0,0,.1-.07.09.09,0,0,0,0-.09c0-.09,0-.19-.1-.23l-.1,0a.35.35,0,0,0-.2,0,.24.24,0,0,0-.11.26.29.29,0,0,0,.21.19.35.35,0,0,0,.28,0,.18.18,0,0,0,.07-.05.32.32,0,0,0,0-.09.34.34,0,0,0-.14-.29.38.38,0,0,0-.31-.05c-.08,0-.16.08-.15.17"/><path class="cls-3" d="M8.15,20.3s-.05,0,0,.05.05,0,.08,0a.14.14,0,0,0,.08-.1.1.1,0,0,0-.07-.1.07.07,0,0,0-.09.06s0,.09.07.08a.06.06,0,0,0,0-.1s0,0-.06,0-.14,0-.16.08a.11.11,0,0,0,.08.15.16.16,0,0,0,.18-.07.23.23,0,0,0,0-.18.16.16,0,0,0,0-.12.22.22,0,0,0-.16,0c-.06,0-.14.06-.15.13a.12.12,0,0,0,0,.1.22.22,0,0,0,.1.11.12.12,0,0,0,.14,0,.1.1,0,0,0,0,0,.21.21,0,0,0,.08-.19.21.21,0,0,0-.16-.13h0s0,0,0,0a.58.58,0,0,0-.07.21.18.18,0,0,0,.11.17.34.34,0,0,0,.14,0,.13.13,0,0,0,.1-.06.12.12,0,0,0,0-.1.31.31,0,0,0-.1-.23.17.17,0,0,0-.1,0A.35.35,0,0,0,8,20a.24.24,0,0,0-.11.25.3.3,0,0,0,.21.2.35.35,0,0,0,.28,0,.2.2,0,0,0,.07-.06s0-.06,0-.09A.31.31,0,0,0,8.35,20,.38.38,0,0,0,8,20c-.08,0-.16.08-.15.16"/><path class="cls-3" d="M14.24,27s-.06,0,0,.05a.06.06,0,0,0,.08,0,.11.11,0,0,0,.08-.09.08.08,0,1,0-.16,0s0,.09.07.08a.06.06,0,0,0,0-.1.1.1,0,0,0-.07,0c-.06,0-.14,0-.16.08a.12.12,0,0,0,.09.15.15.15,0,0,0,.17-.07.3.3,0,0,0,.05-.19.13.13,0,0,0-.05-.11.16.16,0,0,0-.15,0c-.07,0-.15.06-.16.12a.2.2,0,0,0,0,.11.27.27,0,0,0,.1.11.16.16,0,0,0,.15,0s0,0,0,0a.21.21,0,0,0,.08-.19.21.21,0,0,0-.16-.13h0l0,0a.56.56,0,0,0-.06.21.17.17,0,0,0,.1.17.33.33,0,0,0,.14,0,.2.2,0,0,0,.11-.06.34.34,0,0,0,0-.1c0-.09,0-.18-.11-.23a.16.16,0,0,0-.09,0,.34.34,0,0,0-.2,0A.21.21,0,0,0,14,27a.27.27,0,0,0,.2.2.45.45,0,0,0,.28,0,.2.2,0,0,0,.07-.06.14.14,0,0,0,0-.09.33.33,0,0,0-.13-.28.36.36,0,0,0-.32-.05c-.07,0-.15.08-.15.16"/><path class="cls-3" d="M15.1,11.6s0,0,0,.06a.08.08,0,0,0,.08,0,.11.11,0,0,0,.08-.09.09.09,0,0,0-.06-.1.08.08,0,0,0-.1,0,.07.07,0,0,0,.08.08.05.05,0,0,0,0-.09.09.09,0,0,0-.07,0,.16.16,0,0,0-.15.09.12.12,0,0,0,.08.15.17.17,0,0,0,.17-.07.26.26,0,0,0,.05-.19.14.14,0,0,0,0-.11.15.15,0,0,0-.16,0c-.06,0-.14.05-.16.12a.23.23,0,0,0,0,.11.26.26,0,0,0,.1.11.17.17,0,0,0,.14,0l.05,0a.27.27,0,0,0,.08-.2c0-.06-.1-.1-.16-.13h0l0,0a.47.47,0,0,0-.06.2.18.18,0,0,0,.11.17.15.15,0,0,0,.13,0s.09,0,.11-.06,0-.06,0-.09a.33.33,0,0,0-.1-.24l-.1,0a.34.34,0,0,0-.2,0,.23.23,0,0,0-.11.25.29.29,0,0,0,.2.2.37.37,0,0,0,.29,0,.15.15,0,0,0,.06-.05.3.3,0,0,0,0-.1.37.37,0,0,0-.14-.28.38.38,0,0,0-.31-.05c-.08,0-.16.08-.16.16"/><path class="cls-3" d="M15.42,16.9s-.06,0,0,.05a.06.06,0,0,0,.08,0,.11.11,0,0,0,.08-.09.09.09,0,0,0-.06-.1.08.08,0,0,0-.1.06.07.07,0,0,0,.07.08.06.06,0,0,0,0-.1.1.1,0,0,0-.07,0,.17.17,0,0,0-.16.08.12.12,0,0,0,.09.15.17.17,0,0,0,.17-.07.3.3,0,0,0,.05-.19.12.12,0,0,0-.05-.11.16.16,0,0,0-.15,0c-.07,0-.14.05-.16.12a.2.2,0,0,0,0,.11.52.52,0,0,0,.1.11.16.16,0,0,0,.15,0l0,0a.2.2,0,0,0,.07-.19.25.25,0,0,0-.16-.14h0s0,0,0,0a.51.51,0,0,0-.06.2.18.18,0,0,0,.1.18.33.33,0,0,0,.14,0,.16.16,0,0,0,.11-.07.25.25,0,0,0,0-.09c0-.09,0-.19-.11-.23l-.09,0a.34.34,0,0,0-.2,0,.24.24,0,0,0-.11.26.27.27,0,0,0,.2.19.37.37,0,0,0,.29,0l.06-.05a.16.16,0,0,0,0-.09.36.36,0,0,0-.13-.29.4.4,0,0,0-.32-.05c-.07,0-.15.09-.15.17"/><path class="cls-3" d="M11.61,14.44s-.06,0,0,.06a.07.07,0,0,0,.08,0,.12.12,0,0,0,.08-.09.09.09,0,0,0-.06-.1.08.08,0,0,0-.1.06.07.07,0,0,0,.07.08.06.06,0,0,0,0-.1.1.1,0,0,0-.07,0,.14.14,0,0,0-.16.08.12.12,0,0,0,.09.15.17.17,0,0,0,.17-.07.3.3,0,0,0,0-.19.14.14,0,0,0,0-.11s-.1,0-.15,0-.15,0-.16.12,0,.07,0,.11a.52.52,0,0,0,.1.11.17.17,0,0,0,.14,0l.05,0c0-.06.1-.13.08-.19a.25.25,0,0,0-.16-.14h0s0,0,0,0a.47.47,0,0,0-.06.2.16.16,0,0,0,.1.17.22.22,0,0,0,.14,0s.09,0,.11-.07a.14.14,0,0,0,0-.09.3.3,0,0,0-.1-.24l-.09,0a.34.34,0,0,0-.2,0,.23.23,0,0,0-.11.26.26.26,0,0,0,.2.19.35.35,0,0,0,.28,0,.18.18,0,0,0,.07-.05.17.17,0,0,0,0-.1.34.34,0,0,0-.14-.28.37.37,0,0,0-.31-.05c-.07,0-.15.08-.15.16"/></g></g></svg>