<svg xmlns="http://www.w3.org/2000/svg" viewBox="0 0 5.46 11.71"><defs><style>.cls-1{fill:#605f5f;}</style></defs><g id="Layer_2" data-name="Layer 2"><g id="Layer_1-2" data-name="Layer 1"><path class="cls-1" d="M1.61,3.69H0v0c0-1.32,1-2,2.46-2V0H3.59V1.64l1.47.11V3.29s-1.43-.16-2.19-.16S1.69,3.31,1.61,3.69Zm1.11,8V8.52c.95-.06,1.15-.39,1.15-.88V7.46c0-.4-.07-.76-.79-.85L1.73,6.44A2,2,0,0,1,0,4.35V4H1.58v.11c0,.39.08.76.78.85l1.37.16a1.89,1.89,0,0,1,1.73,2v.81A1.89,1.89,0,0,1,3.85,9.86v1.85ZM2.38,8.53V10C1.28,10,0,9.87,0,9.87V8.38S1.38,8.53,2.38,8.53Z"/></g></g></svg>