<svg xmlns="http://www.w3.org/2000/svg" viewBox="0 0 3.18 6.45"><defs><style>.cls-1{fill:#605f5f;}</style></defs><g id="Layer_2" data-name="Layer 2"><g id="Layer_1-2" data-name="Layer 1"><line class="cls-1" x1="3.18" y1="1.62" x2="0.05" y2="1.62"/><path class="cls-1" d="M.3,3.28A7,7,0,0,1,.9,6.45H2.22a7.11,7.11,0,0,1,.61-3.17,3.76,3.76,0,0,0,.29-1.66A3.38,3.38,0,0,0,2.65,0H.48A3.67,3.67,0,0,0,.3,3.28Z"/><path class="cls-1" d="M1.82,3.68h0a0,0,0,0,1,0,0h0a0,0,0,0,1,0,0s0,0,0,0h0a0,0,0,0,1,0,0h0s0,0,0,0v0h.06v0s0,0,0,0,0,0,0,0h0s0,0,0,0v0h0l0,0s0,0,0,0h0s0,0,0,0v0h.05a0,0,0,0,1,0,0,.08.08,0,0,1,0,0s0,0-.05,0h0a0,0,0,0,1,0-.05s0,0,0,0,0,0,0,0"/><path class="cls-1" d="M.94,3.61s0,0,0,0h0s0,0,0,0,0,0,0,0,0,0,0,0H1a0,0,0,0,1,0,0h0l0,0v0H1v0s0,0,0,0h0l0,0s0,0,0,0h0s0,0,0,0,0,0,0,0h0V3.58H1a0,0,0,0,1,0,0,.08.08,0,0,1,0,.05H.89a0,0,0,0,1,0,0s0,0,0,0l0,0"/><path class="cls-1" d="M1.32,4.16a0,0,0,0,1,0,0l0,0a.06.06,0,0,1-.06,0s0,0,0-.06a0,0,0,0,1,.06,0s0,0,0,0-.05,0,0,0l0,0s.08,0,.1,0a.07.07,0,0,1,0,.09.09.09,0,0,1-.1,0s0,0-.05-.08a.09.09,0,0,1,0-.07s.05,0,.08,0,.08,0,.1,0a.06.06,0,0,1,0,.06.11.11,0,0,1,0,.07.06.06,0,0,1-.07,0h0s-.07,0-.07-.08A.15.15,0,0,1,1.27,4h0a.23.23,0,0,1,.07.1.09.09,0,0,1,0,.1.1.1,0,0,1-.07,0H1.21a.08.08,0,0,1,0,0s0-.1,0-.13,0,0,0,0a.2.2,0,0,1,.11,0s.09,0,.1.11a.17.17,0,0,1-.07.13.2.2,0,0,1-.15,0h0a.05.05,0,0,1,0,0,.15.15,0,0,1,0-.16A.19.19,0,0,1,1.32,4,.1.1,0,0,1,1.43,4"/><path class="cls-1" d="M1.88,2.85s0,0,0,0l0,0a.05.05,0,0,1-.05,0,0,0,0,0,1,0-.06s0,0,.06,0a0,0,0,0,1,0,0s0,0,0,0l0,0s.07,0,.09,0a.06.06,0,0,1,0,.09.09.09,0,0,1-.1,0,.18.18,0,0,1-.06-.09s0-.05,0-.06a.08.08,0,0,1,.08,0s.08,0,.1,0a.13.13,0,0,1,0,.06.09.09,0,0,1,0,.07s0,0-.07,0h0a.08.08,0,0,1-.07-.08.09.09,0,0,1,.05-.09h0a.35.35,0,0,1,.07.09.1.1,0,0,1,0,.1.08.08,0,0,1-.07,0s0,0-.06,0a.08.08,0,0,1,0-.05.15.15,0,0,1,0-.13l0,0a.19.19,0,0,1,.1,0A.12.12,0,0,1,2,2.8a.14.14,0,0,1-.06.13.21.21,0,0,1-.15,0h0l0,0a.2.2,0,0,1,0-.17.18.18,0,0,1,.15-.08s.09,0,.1,0"/><path class="cls-1" d="M1.25,5.05s0,0,0,0,0,0,0,0a.07.07,0,0,1-.06,0A.07.07,0,0,1,1.2,5s0,0,.06,0a0,0,0,0,1,0,.05s0,0,0,0,0,0,0,0a.08.08,0,0,1,.09,0s0,.07,0,.09a.09.09,0,0,1-.1,0A.16.16,0,0,1,1.15,5a.09.09,0,0,1,0-.07.11.11,0,0,1,.08,0,.12.12,0,0,1,.1,0s0,0,0,.06,0,.05,0,.07a.11.11,0,0,1-.07,0h0A.15.15,0,0,1,1.13,5a.15.15,0,0,1,.06-.1h0A.47.47,0,0,1,1.29,5a.09.09,0,0,1,0,.11l-.07,0H1.14a.13.13,0,0,1,0,0,.22.22,0,0,1,0-.14l0,0a.12.12,0,0,1,.1,0,.11.11,0,0,1,.1.1.14.14,0,0,1-.06.14.22.22,0,0,1-.16,0l0,0,0,0A.15.15,0,0,1,1.1,5a.18.18,0,0,1,.15-.08.08.08,0,0,1,.1,0"/><path class="cls-1" d="M.6,2.62s0,0,0,0,0,0,0,0a.05.05,0,0,1,0,0,.06.06,0,0,1,0-.07s0,0,.06,0a0,0,0,0,1,0,.06s0,0,0-.05l0,0a.12.12,0,0,1,.1,0,.08.08,0,0,1,0,.1.09.09,0,0,1-.1,0A.15.15,0,0,1,.5,2.58s0,0,0-.06.05,0,.07,0,.09,0,.1,0,0,0,0,.05a.11.11,0,0,1,0,.08.08.08,0,0,1-.07,0h0S.49,2.63.49,2.59s0-.07.05-.09h0l.07.09a.11.11,0,0,1,0,.11l-.07,0a.08.08,0,0,1-.07,0l0,0a.17.17,0,0,1,0-.14l0,0a.2.2,0,0,1,.11,0,.12.12,0,0,1,.09.11.15.15,0,0,1-.06.14.2.2,0,0,1-.15,0l0,0,0,0a.21.21,0,0,1,0-.17A.28.28,0,0,1,.6,2.43a.13.13,0,0,1,.11.06"/><path class="cls-1" d="M1.59,5.69s0,0,0,0h0s0,0,0,0h0s0,0,0,0,0,0,0,0h0a0,0,0,0,1,0,0h0s0,0,0,0v0h0s0,0,0,0,0,0,0,0a0,0,0,0,1,0,0h0l0,0a.05.05,0,0,1,0,0h0a.05.05,0,0,1,0,0,0,0,0,0,1,0,0H1.55a0,0,0,0,1,0,0H1.6s0,0,0,0,0,0,0,0,0,0-.05,0h0a.06.06,0,0,1,0-.06.05.05,0,0,1,.05,0l0,0"/><path class="cls-1" d="M1.41,3.32h0s0,0,0,0,0,0,0,0,0,0,0,0a0,0,0,0,1,0,0h0a0,0,0,0,1,0,0s0,0,0,0a0,0,0,0,1,0,0s0,0,0,0v0h0s0,0,0,0a0,0,0,0,1,0,0v0h0a0,0,0,0,1,0,0,.05.05,0,0,1,0,0h0s0,0,0,0,0,0,0,0h0a0,0,0,0,1,0,0s0,0,0,0h0a0,0,0,0,1,0,0,.05.05,0,0,1,0,0,.07.07,0,0,1-.06,0h0a.06.06,0,0,1,0-.06s0,0,0,0l0,0"/><path class="cls-1" d="M2.36,3.15h0s0,0,0,0,0,0,0,0,0,0,0,0v0h0s0,0,0,0,0,0,0,0a0,0,0,0,1,0,0l0,0s0,0,0,0,0,0,0,0h0v0h0s0,0,0,0,0,0,0,0h0s0,0,0,0,0,0,0,0H2.31a.07.07,0,0,1,0,0,0,0,0,0,1,0,0h0a0,0,0,0,1,0,0,.05.05,0,0,1,0,0s0,0,0,0h0a0,0,0,0,1,0,0s0,0,0,0a.05.05,0,0,1,0,0s0,0,0,0"/><path class="cls-1" d="M1.72,4.67h0a0,0,0,0,1,0,0s0,0,0,0v0h0a0,0,0,0,1,0,0l0,0h.05a0,0,0,0,1,0,0h0l0,0s0,0,0,0h.06v0a0,0,0,0,1,0,0h0a0,0,0,0,1,0,0l0,0h0l0,0s0,0,0,0H1.68a0,0,0,0,1,0-.05h.05s0,0,0,0,0,0,0,0a0,0,0,0,1-.05,0h0l0,0s0,0,0-.05a.05.05,0,0,1,.05,0s0,0,0,0"/><path class="cls-1" d="M.63,2.09h0a0,0,0,0,1,0,0s0,0,0,0a0,0,0,0,1,0,0h0a0,0,0,0,1,0,0h0s0,0,0,0h0s0,0,0,0,0,0,0,0H.66v0a0,0,0,0,1,0,0h0s0,0,0,0a.05.05,0,0,1,0,0h0l0,0a0,0,0,0,1,0,0H.58a.09.09,0,0,1,0-.05H.64s0,0,0,0a.08.08,0,0,1,0,.05H.58a0,0,0,0,0,0,0,.07.07,0,0,1,0-.06A.05.05,0,0,1,.63,2l0,0"/><path class="cls-1" d="M.9,3h0a0,0,0,0,1,0,0h0a0,0,0,0,1,0,0h0s0,0,0,0a0,0,0,0,1,0,0s0,0,0,0,0,0,0,0H.93V3a0,0,0,0,1,0,0h0s0,0,0,0a.05.05,0,0,1,0,0h0l0,0s0,0,0,0H.86a0,0,0,0,1,0,0H.91s0,0,0,0,0,0,0,0a0,0,0,0,1-.05,0h0s0,0,0-.06A.05.05,0,0,1,.9,3l0,0"/><path class="cls-1" d="M1.41,2.36a0,0,0,0,1,0,0h0l0,0v0h0v0s0,0,0,0a0,0,0,0,1,0,0h0a0,0,0,0,1,0,0s0,0,0,0l0,0v0h0s0,0,0,0,0,0,0,0a0,0,0,0,0,0,0h0l0,0s0,0,0,0h0s0,0,0,0,0,0,0,0h0v0s0,0,0,0h0s0,0,0,0,0,0,0,0a.08.08,0,0,1,0,.05H1.36s0,0,0,0a.06.06,0,0,1,0-.06l0,0s0,0,0,0"/></g></g></svg>