<svg xmlns="http://www.w3.org/2000/svg" viewBox="0 0 22.02 28.93"><defs><style>.cls-1,.cls-3{fill:#605f5f;}.cls-1,.cls-2{opacity:0.21;}</style></defs><g id="Layer_2" data-name="Layer 2"><g id="Layer_1-2" data-name="Layer 1"><path class="cls-1" d="M5.46,7.48V13.3H4.59A4.76,4.76,0,0,0,0,18.21a4.76,4.76,0,0,0,4.59,4.9h.87v1.65a4.17,4.17,0,0,0,4.17,4.17h8.22A4.17,4.17,0,0,0,22,24.76V7.48ZM5.22,22.11H4.59a3.79,3.79,0,0,1-3.66-3.9A3.79,3.79,0,0,1,4.59,14.3h.63ZM21,24.76a3.17,3.17,0,0,1-3.17,3.17H9.63a3.17,3.17,0,0,1-3.17-3.17V8.48H21Z"/><g class="cls-2"><path class="cls-3" d="M6.74,4.26a.58.58,0,0,0-.7.08A.62.62,0,0,0,5.86,5a.73.73,0,0,0,.93.43.78.78,0,0,0,.56-.76.74.74,0,0,0-.72-.72.7.7,0,0,0-.71.7.69.69,0,0,0,.82.66.68.68,0,0,0,.44-1,.94.94,0,0,0-.81-.41.83.83,0,0,0-.74.42.86.86,0,0,0,.13.95.9.9,0,0,0,.87.25A1.08,1.08,0,0,0,7.29,5a1.26,1.26,0,0,0,.23-.73.78.78,0,0,0-.61-.74c-.51-.11-1.2,0-1.36.58A1.23,1.23,0,0,0,5.67,5a1,1,0,0,0,.77.51,1.17,1.17,0,0,0,.79-.31.91.91,0,0,0,.35-.74,1.16,1.16,0,0,0-.38-.73.75.75,0,0,0-.52-.24.78.78,0,0,0-.52.3,1.42,1.42,0,0,0-.41.66,1,1,0,0,0,.1.77.82.82,0,0,0,.33.31,1.37,1.37,0,0,0,.49.13.87.87,0,0,0,.82-.29,1.5,1.5,0,0,0,.23-.75,1.06,1.06,0,0,0-.24-.81,1.57,1.57,0,0,0-.69-.41,1.12,1.12,0,0,0-.86.09,1.14,1.14,0,0,0-.52,1.35,1.17,1.17,0,0,0,.41.61,1.45,1.45,0,0,0,.82.33,1.35,1.35,0,0,0,.76-.14A1,1,0,0,0,7.88,5a1.4,1.4,0,0,0-.42-1.38,1.62,1.62,0,0,0-.66-.35,1.35,1.35,0,0,0-.72,0,.91.91,0,0,0-.38.22.77.77,0,0,0-.23.36.53.53,0,0,0,0,.39.53.53,0,0,0,.3.23.5.5,0,0,0,.38,0,.52.52,0,0,0,.23-.3v0l-.05.12a.41.41,0,0,1,.05-.09l-.08.11.06-.06-.1.08a.27.27,0,0,1,.1-.06l-.12,0a.59.59,0,0,1,.19,0h.08l-.13,0a.92.92,0,0,1,.27.08l-.12,0a1,1,0,0,1,.23.13l-.1-.08a.87.87,0,0,1,.16.17L6.8,4.36a1.13,1.13,0,0,1,.12.21l0-.12a2.17,2.17,0,0,1,.07.24l0-.13a.74.74,0,0,1,0,.21l0-.13a.83.83,0,0,1-.06.21l0-.12a.64.64,0,0,1-.08.14l.08-.1-.08.09L7,4.78l-.09,0,.12,0-.19,0h.13a1.09,1.09,0,0,1-.31,0l.14,0a1,1,0,0,1-.25-.06l.12,0-.2-.11.1.07a1.06,1.06,0,0,1-.15-.15l.08.1a.78.78,0,0,1-.11-.18l0,.12a1.21,1.21,0,0,1,0-.18l0,.13a.61.61,0,0,1,0-.19l0,.13a.83.83,0,0,1,0-.15l0,.12a.6.6,0,0,1,.09-.15l-.08.1.12-.12-.1.08a.57.57,0,0,1,.13-.08l-.12.05.13,0-.13,0h.16l-.13,0a.84.84,0,0,1,.24.07l-.12-.05a1.35,1.35,0,0,1,.26.15l-.1-.08a.38.38,0,0,1,.09.09l-.08-.11a.6.6,0,0,1,.06.11l0-.12a.5.5,0,0,1,0,.13l0-.13a1.11,1.11,0,0,1,0,.26l0-.13c0,.11,0,.22-.07.33l0-.12,0,.08.08-.1,0,0,.1-.08,0,0,.12,0-.08,0,.13,0a1,1,0,0,1-.3,0l.14,0-.18,0,.12,0-.08,0,.1.07-.06-.05.08.1a.47.47,0,0,1-.06-.09l.05.12,0-.12,0,.13a.38.38,0,0,1,0-.15l0,.14a.66.66,0,0,1,0-.15l0,.12a.82.82,0,0,1,.12-.2l-.08.1A1.73,1.73,0,0,1,7,4.4l-.1.08,0,0-.12.06H6.7l-.13,0h0l-.12,0,0,0-.1-.08.2.21-.08-.1a.75.75,0,0,1,.07.12l-.05-.12a.23.23,0,0,1,0,.11V4.45a.19.19,0,0,1,0,.08l0-.12a.33.33,0,0,1-.06.1l.08-.1a.57.57,0,0,1-.11.11l.1-.08a1.23,1.23,0,0,1-.25.14l.12,0-.1,0,.14,0h-.1l.13,0-.09,0,.12,0a.21.21,0,0,1-.1-.06l.1.08a.38.38,0,0,1-.09-.09l.08.1a.57.57,0,0,1-.08-.13l0,.12a1.8,1.8,0,0,1-.06-.22l0,.13a.54.54,0,0,1,0-.18l0,.13a.64.64,0,0,1,0-.07l0,.12a.22.22,0,0,1,0-.08l-.08.1s0,0,0,0l-.1.07.09,0-.12,0a.35.35,0,0,1,.14,0H6.6l.12,0-.12,0,.07,0-.1-.08,0,0-.07-.1,0,.06-.05-.12a.19.19,0,0,1,0,.07l0-.13a.17.17,0,0,1,0,.1l0-.13a.88.88,0,0,1-.07.23l0-.12a1.14,1.14,0,0,1-.1.19l.08-.1a.86.86,0,0,1-.14.13l.1-.08a.33.33,0,0,1-.1.06l.12-.05-.14,0,.14,0H6.36l.13,0a.23.23,0,0,1-.11,0l.12,0-.08,0,.1.08-.06-.06.08.1,0-.09,0,.12s0-.05,0-.08l0,.14a.17.17,0,0,1,0-.1l0,.13a.14.14,0,0,1,0-.07l0,.11,0-.05-.08.11a.17.17,0,0,1,.06-.06l-.1.08,0,0-.12,0,.11,0H6.3a.47.47,0,0,1,.17,0l-.12,0,.08,0-.1-.07,0,0-.08-.1v0l0-.12a.06.06,0,0,1,0,0V4.5a.08.08,0,0,1,0,0l0-.12s0,0,0,0l.07-.1,0,0,.1-.07-.05,0,.12-.06h.06l.13,0h0l.12,0,0,0,.1.08,0,0,.08.1a.08.08,0,0,1,0,0l0,.11s0,0,0,0l0,.13v0l0,.13s0,0,0,0l0,.12a.05.05,0,0,1,0,0l-.08.1s0,0,0,0l-.1.08,0,0-.12,0H6.59l-.12,0,0,0-.1-.07,0,0-.08-.1,0,0-.05-.12s0,0,0,.06l0-.13v.08l0-.13s0,0,0,.06L6.4,4.5l0,.06.08-.1-.07.06.1-.08-.05,0,.12,0-.09,0,.13,0H6.51l.13,0-.06,0,.12.05s0,0,0,0l.1.08,0,0,.08.11,0,0,0,.12v0l0,.14v0l0,.13v0l0,.12,0,0-.08.1,0,0-.11.08h0l-.12,0h0l-.13,0h0l-.14,0h0l-.12,0h0A.51.51,0,0,0,6.92,5a.52.52,0,0,0-.18-.69Z"/></g><g class="cls-2"><path class="cls-3" d="M11.42,5.73a.55.55,0,0,0-.4-.06.62.62,0,0,0-.25.14.59.59,0,0,0-.15.55.61.61,0,0,0,.76.39.65.65,0,0,0,.37-.28.67.67,0,0,0,.09-.34.61.61,0,0,0-.17-.42.64.64,0,0,0-.43-.18.6.6,0,0,0-.6.6.59.59,0,0,0,.18.41.54.54,0,0,0,.54.15.65.65,0,0,0,.36-.27.56.56,0,0,0,0-.57.69.69,0,0,0-.6-.32.65.65,0,0,0-.58.33.62.62,0,0,0-.08.33.79.79,0,0,0,.08.29.71.71,0,0,0,.1.14l.13.1a.53.53,0,0,0,.17.08.77.77,0,0,0,.37,0,.79.79,0,0,0,.47-.35,1.12,1.12,0,0,0,.1-.22.73.73,0,0,0,0-.25.6.6,0,0,0-.18-.44.69.69,0,0,0-.3-.17,1.24,1.24,0,0,0-.47,0,.62.62,0,0,0-.49.46.84.84,0,0,0,.08.62.82.82,0,0,0,.19.22l.1.07a.79.79,0,0,0,.3.08.85.85,0,0,0,.56-.23.65.65,0,0,0,.15-.18A.61.61,0,0,0,12,6.07a.83.83,0,0,0-.1-.34,1.46,1.46,0,0,0-.16-.19.49.49,0,0,0-.14-.11.6.6,0,0,0-.29-.08.59.59,0,0,0-.43.22.93.93,0,0,0-.26.42.71.71,0,0,0,.18.71l.14.1a.81.81,0,0,0,.37.09.71.71,0,0,0,.25,0l.16-.06a.71.71,0,0,0,.18-.16A.68.68,0,0,0,12,6.4a2.34,2.34,0,0,0,0-.26.63.63,0,0,0,0-.24.28.28,0,0,0,0-.12.49.49,0,0,0-.13-.2.94.94,0,0,0-.44-.26.78.78,0,0,0-.6.06.65.65,0,0,0-.18.15,1,1,0,0,0-.19.3.85.85,0,0,0,.26.89l.15.11L11,6.9a1.19,1.19,0,0,0,.26,0,.82.82,0,0,0,.49-.1A.58.58,0,0,0,12,6.61a.67.67,0,0,0,.1-.23,1,1,0,0,0,0-.25.73.73,0,0,0,0-.25.82.82,0,0,0-.26-.4,1,1,0,0,0-.42-.24l-.24,0-.17,0-.07,0a.81.81,0,0,0-.3.17.72.72,0,0,0-.17.29.45.45,0,0,0,0,.2.33.33,0,0,0,.06.19.53.53,0,0,0,.3.23.55.55,0,0,0,.38,0l.11-.08A.53.53,0,0,0,11.4,6h0l-.05.12a.05.05,0,0,1,0,0l-.08.1,0,0-.1.08,0,0-.12,0,.08,0-.13,0h.1l-.13,0,.13,0-.12,0a.27.27,0,0,1,.1.06l-.1-.08.08.08-.08-.1.06.09-.05-.12a.43.43,0,0,1,0,.11V6.07a.44.44,0,0,1,0,.1l.05-.12a.21.21,0,0,1,0,.06l.08-.1a.08.08,0,0,1,0,0l.1-.08,0,0,.12,0-.09,0,.13,0h-.14l.13,0-.11,0,.12,0-.09,0,.1.07a.23.23,0,0,1-.07-.07l.07.1A.56.56,0,0,1,11.33,6l.05.12a.29.29,0,0,1,0-.09l0,.13a.11.11,0,0,1,0-.08l0,.13a.19.19,0,0,1,0-.07l-.05.12a.16.16,0,0,1,0-.07l-.08.1.06-.06-.1.08s0,0,.06,0l-.12,0,.06,0-.13,0h.07l-.13,0,.11,0-.12,0a.35.35,0,0,1,.12.07l-.1-.08,0,0L11,6.18s0,0,0,.05L11,6.11a.14.14,0,0,1,0,.06L11,6a.24.24,0,0,1,0,.12L11,6a.66.66,0,0,1,0,.15l0-.12a.05.05,0,0,1,0,0L11.1,6l0,0,.1-.08h0l.12,0,0,0,.13,0h-.13l.13,0-.08,0,.12.05,0,0,.1.07,0,0,.08.1,0,0,0,.12s0,0,0-.06l0,.13a.08.08,0,0,1,0-.07l0,.14a.14.14,0,0,1,0-.07l-.05.12a.19.19,0,0,1,.05-.09l-.08.1a.53.53,0,0,1,.13-.13l-.11.07h0l-.12,0h0l-.13,0h0l-.13,0h0l-.12,0,0,0L11,6.22l.1.09L11,6.21l0,.06L11,6.15a.09.09,0,0,1,0,0V6a.06.06,0,0,1,0,0L11,5.9l0,0,.08-.1-.06,0,.1-.07L11,5.88l.12,0h.13l.12,0s0,0,0,0l.1.08,0,0,.08.1,0-.06.05.12a.36.36,0,0,1,0-.11v.15l0,.12,0,0-.08.11,0,0-.1.07,0,0-.12.05.07,0-.14,0a.54.54,0,0,1,.18,0l-.14,0,.06,0-.12-.05,0,0L11,6.25l0,0L11,6.17s0,0,0,0l-.05-.12s0,0,0,0l0-.14V6l0-.13,0,.11L11,5.88,10.91,6l.08-.1-.06.06.1-.08,0,0,.12,0h0l.13,0-.05,0,.12,0,0,0,.11.08,0,0,.08.1,0,0,0,.12a0,0,0,0,0,0,0l0,.13V6.14l0,.14a.08.08,0,0,0,0,0l0,.12,0,0-.08.1,0,0-.1.08,0,0-.12,0h.05l-.13,0h.06l-.14,0,.08,0-.12,0,0,0-.1-.08,0,0-.08-.11h0l0-.12V6l0-.12v0l.08-.1,0,0,.1-.08h0l.12,0h0l.14,0h.09l.12,0h0l.1.08,0,0,.08.1v0l.05.12V6l0,.14v0l0,.13s0,0,0,0l-.05.12v0l-.08.1,0,0-.1.08h0l-.11,0h-.18l-.12,0h0l-.1-.08,0,0-.07-.11v0l-.05-.12v0l0-.14v0l0-.13v0l.05-.12V6L11,5.86l0,0L11,5.81l0,0,.12,0h0l.13,0a0,0,0,0,1,0,0l.13,0h0l.12,0,0,0,.1.08h0l.08.1V6l.05.12h0v.25h0l-.05.12h0l-.08.1h0l-.1.08h0l-.12,0h0l-.13,0h0l-.14,0h0l-.12,0h0a.6.6,0,0,0,.19.06.41.41,0,0,0,.19,0,.5.5,0,0,0,.3-.23A.49.49,0,0,0,11.65,6l-.05-.12a.52.52,0,0,0-.18-.18Z"/></g><g class="cls-2"><path class="cls-3" d="M12.58,1.52c-.49-.33-1.1.24-.94.76a.84.84,0,0,0,1.08.49.93.93,0,0,0,.65-.91A.85.85,0,0,0,12.54,1a.8.8,0,0,0-.81.8.75.75,0,1,0,1.42-.33,1.15,1.15,0,0,0-1-.49,1,1,0,0,0-.9.51,1,1,0,0,0,.16,1.12A1.11,1.11,0,0,0,12.48,3a1.41,1.41,0,0,0,.85-.6,1.75,1.75,0,0,0,.31-1,.93.93,0,0,0-.75-.87c-.63-.14-1.53,0-1.73.69a1.68,1.68,0,0,0,.16,1.14,1.21,1.21,0,0,0,.94.64,1.56,1.56,0,0,0,1-.4,1.13,1.13,0,0,0,.44-.93,1.51,1.51,0,0,0-.5-.92.83.83,0,0,0-.6-.28A.92.92,0,0,0,12,.82a2,2,0,0,0-.55.88,1.24,1.24,0,0,0,.13,1,1.28,1.28,0,0,0,1,.54,1.1,1.1,0,0,0,1-.33,2.11,2.11,0,0,0,.29-1,1.37,1.37,0,0,0-.29-1A2,2,0,0,0,12.72.3a1.45,1.45,0,0,0-1.1.1A1.48,1.48,0,0,0,11,2.15a1.84,1.84,0,0,0,1.61,1.23,1.89,1.89,0,0,0,1-.17,1.35,1.35,0,0,0,.61-.86A1.88,1.88,0,0,0,13.61.52,2,2,0,0,0,11.78.08,1.19,1.19,0,0,0,11,.79a.51.51,0,0,0,.35.62A.52.52,0,0,0,12,1.06c0,.12,0,.06,0,0L12,1s0,.1,0,.05.07-.06,0,0l.05,0c.07-.05,0,0,0,0l.07,0,.11,0c.07,0,0,0,0,0h.06a.48.48,0,0,1,.12,0h.05c.12,0-.11,0,0,0l.25.07.06,0s-.1-.05,0,0l.12.06.11.07c.06,0-.07-.06,0,0s0,0,0,.05l.09.08.05.06s-.06-.08,0,0a.57.57,0,0,1,.08.13l0,.06s0,.07,0,0,0,.06,0,.08a.75.75,0,0,1,0,.16c0,.07,0-.1,0,0s0,0,0,.06V2c0,.06,0,0,0,0s0,0,0,0a.94.94,0,0,1,0,.16c0,.06,0,0,0,0s0,0,0,.05-.07.1-.06.1.06-.06,0,0l-.05,0s.1-.06,0,0h0s-.14,0-.15,0H12.9c-.07,0,.09,0,0,0a1.6,1.6,0,0,1-.31,0h0s.1,0,0,0l-.15,0-.09,0c.06,0,0,0,0,0l-.1-.05s-.13-.08-.07,0,0,0,0,0l-.05,0a.93.93,0,0,0-.1-.1s.05.07,0,0L12,2s-.05-.12-.06-.13,0,.09,0,0a.19.19,0,0,0,0-.07s0-.11,0-.12,0,.13,0,0V1.61c0-.1,0,0,0,0a1,1,0,0,1,0-.11c0-.11-.05.08,0,0A.75.75,0,0,1,12,1.38s-.07.07,0,0l0,0s.08-.09.1-.09-.11.07,0,0l0,0,.06,0s-.12,0,0,0,.14,0,.07,0,.07,0,.1,0,0,0,0,0l.08,0,.16.05c.09,0,0,0,0,0l.08,0,.12.07s.12.05.12.07-.07-.06,0,0,.08.09,0,0,0,.07,0,.07,0-.09,0,0,0,.05,0,.07,0-.1,0,0v.17s0,.16,0,.08h0l0,.07-.06.28c0,.1,0,0,0,0s0,0,0,0,.06-.07,0,0,0,0,.06,0,0,0,0,0,0,0,0,0h-.37s.13,0,0,0l-.13,0c-.06,0,0,0,0,0s-.1-.08,0,0,0,0,0,0,0,.09,0,0l0,0c0-.07,0,0,0,0s0-.09,0-.11,0,.11,0,0V2s0,.1,0,0l0-.13s0,0,0,0a.25.25,0,0,1,0-.07.57.57,0,0,1,.08-.13c0-.08,0,0,0,0l.05-.06.09-.1.09-.1c.12-.12.2-.12-.09-.09l-.21,0s-.05,0,0,0a.08.08,0,0,1,0,0l.11.1.08.09c.05,0,0-.07,0,0l.05.07s0,.07,0,0,0,0,0,0,0,.09,0,0,0,0,0,0,0,0,0,0a.42.42,0,0,1,0,.06s0-.09,0,0,0,.07-.05.07.07-.08,0,0l0,.05,0,0s.07-.05,0,0L12.38,2l-.05,0c.09,0,.05,0,0,0s0,0,0,0-.06,0-.07,0,.09,0,0,0h0c.06,0,0,0,0,0l-.05,0,0,0s-.11-.12-.06-.06,0,0,0,0a.25.25,0,0,0,0-.07s0-.05,0,0l0-.08a.83.83,0,0,0,0-.15c0-.08,0,0,0,0s0,0,0-.06V1.5s0-.1,0,0,0,0,0,0,0,0,0,0,.06-.07,0,0c.05-.07-.07,0,0,0l0,0c.07-.05,0,0,0,0s.1,0,.11,0-.1,0,0,0h.44s-.1,0-.05,0h.06c.09,0,0,0,0,0s.05,0,.05,0-.08-.07,0,0-.06-.09,0,0,0,0,0,0,0,0,0,0,0,.08,0,.08,0-.13,0,0,0,.05,0,.07,0,.1,0,.14,0-.08,0,0l-.06.11s0,.06,0,.06.06-.07,0,0l-.08.08c-.08.07,0,0,0,0s-.06,0-.06,0h0l-.07,0c-.05,0,.12,0,0,0h-.05c-.07,0,.09,0,0,0h-.05c-.1,0,0,0,0,0s-.06,0-.06,0,.09.08,0,0h0c.05.07,0,0,0,0s0,0,0,0l0-.06s0,.11,0,.06V1.93c0-.05,0,.05,0,.06a.42.42,0,0,0,0-.06s-.06.11,0,0-.05.08,0,0,0,0,0,0,0,0,0,0l.06,0c.05,0,0,0,0,0h.11c.05,0,0,0,0,0h.08s.15.06.09,0,0,0,0,0h0l0,0c.07.05,0,.05-.06-.12a.4.4,0,0,1,0-.11s.06-.14,0-.1,0,0,0,0l.06,0s-.06,0,0,0h.11a.29.29,0,0,1,.14,0c.06,0,0,0,0,0l0,0c.05.08,0,.08,0,0a.38.38,0,0,1,0,.15c0-.06,0,0,0,.05s0,.06,0,0a.21.21,0,0,1-.12.07c.08,0-.12,0,0,0s-.1,0,0,0-.06,0,0,0-.06,0,0,0l0-.06h0c0-.07,0,.05,0,0s0,0,0,0,0,0,0,0,0,.07,0,0c0,.08.06-.07,0,0s.08-.05,0,0,0,0,0,0h0s-.08,0,0,0,0,0,0,0,.1,0,0,0l0,0c-.07,0,0,0,0,0a.32.32,0,0,1,.09.23.48.48,0,0,1-.07.2.37.37,0,0,1-.46.09.5.5,0,0,0,.68-.18.53.53,0,0,0-.18-.69Z"/></g><g class="cls-2"><path class="cls-3" d="M17.27,4.71a.55.55,0,0,0-.65.08.55.55,0,0,0-.15.56.61.61,0,0,0,.77.39.65.65,0,0,0,.47-.63.67.67,0,0,0-.18-.43.65.65,0,0,0-.44-.18.59.59,0,0,0-.42,1,.58.58,0,0,0,.54.16.61.61,0,0,0,.37-.28.6.6,0,0,0,0-.58A.76.76,0,0,0,17,4.49a.69.69,0,0,0-.59.34.59.59,0,0,0-.08.34.64.64,0,0,0,.08.3.45.45,0,0,0,.1.14l.13.11.17.08a.74.74,0,0,0,.39,0,.79.79,0,0,0,.49-.35,1.6,1.6,0,0,0,.1-.23A.81.81,0,0,0,17.8,5a.65.65,0,0,0-.5-.62,1.34,1.34,0,0,0-.49,0,.68.68,0,0,0-.51.47.94.94,0,0,0,.09.64.64.64,0,0,0,.2.23l.11.07a.52.52,0,0,0,.3.08.83.83,0,0,0,.58-.23.7.7,0,0,0,.15-.19.71.71,0,0,0,0-.71,1,1,0,0,0-.16-.2.72.72,0,0,0-.15-.11.6.6,0,0,0-.29-.08.54.54,0,0,0-.38.17l-.06,0a1,1,0,0,0-.27.45.74.74,0,0,0,.07.58.79.79,0,0,0,.12.15l.14.1a1,1,0,0,0,.38.1,1.13,1.13,0,0,0,.26,0,.64.64,0,0,0,.35-.23.84.84,0,0,0,.13-.27,2.51,2.51,0,0,0,0-.27.8.8,0,0,0-.2-.59,1,1,0,0,0-.46-.27.86.86,0,0,0-.63.07.84.84,0,0,0-.38,1,.85.85,0,0,0,.27.42,1,1,0,0,0,.16.12l.17.07a1.17,1.17,0,0,0,.27,0,.9.9,0,0,0,.51-.1.78.78,0,0,0,.26-.25.72.72,0,0,0,.1-.24,1,1,0,0,0,0-.53,1,1,0,0,0-.71-.66,1.07,1.07,0,0,0-.25,0l-.18,0-.08,0a.9.9,0,0,0-.3.17.83.83,0,0,0-.18.3.45.45,0,0,0,0,.2.55.55,0,0,0,.06.18.46.46,0,0,0,.3.23.49.49,0,0,0,.39,0l.1-.07a.65.65,0,0,0,.13-.23h0L17.18,5l0,0-.08.1,0,0-.1.08.05,0-.12,0,.1,0-.14,0h0a.33.33,0,0,1,.14,0L17,5.12l.12.07L17,5.11l.08.09L17,5.1a.41.41,0,0,1,.07.11L17,5.09l0,.12,0-.14v.12l0-.14,0,.11L17,5a.3.3,0,0,1,0,.08L17.08,5l0,0,.1-.08-.05,0,.12,0a.29.29,0,0,1-.1,0l.13,0h-.15l.13,0-.13,0,.12,0-.1,0,.1.08-.08-.08.08.1-.06-.1.06.12a.16.16,0,0,1,0-.09l0,.13a.17.17,0,0,1,0-.1l0,.14a.24.24,0,0,1,0-.08l-.05.12,0-.08-.07.1s0,0,.06-.06l-.1.08.07,0L17,5.23l.06,0-.13,0H17l-.13,0,.13,0-.12,0,.13.07L17,5.2l.05,0-.08-.1,0,.05-.05-.12s0,0,0,.07l0-.13a.71.71,0,0,1,0,.14l0-.14a.85.85,0,0,1,0,.17l.05-.12a.05.05,0,0,1,0,0L17,5l0,0,.1-.07h0l.12,0h-.05l.13,0h0l-.08,0,.11.05,0,0,.1.08,0,0,.08.1,0-.05.05.12s0,0,0-.06l0,.13V5.13l0,.14,0-.08-.06.12a.36.36,0,0,1,.07-.1l-.08.1a.86.86,0,0,1,.13-.14l-.1.07h0l-.12,0h0l-.13,0h0l-.13,0h0l-.12,0,0,0-.1-.08.11.1-.08-.1a.43.43,0,0,1,0,.07l-.05-.12s0,0,0,0l0-.13a0,0,0,0,1,0,0l0-.14a.09.09,0,0,1,0,0l.05-.12,0,0,.08-.1-.06,0,.1-.07-.13.07.12,0h-.05l.14,0H17l.13,0h-.05l.12,0-.05,0,.1.08-.05,0,.08.1a.43.43,0,0,1,0-.07l.05.12,0-.11,0,.13V5l0,.13v0l-.05.12,0,0-.08.1s0,0,0,0l-.1.08,0,0-.12,0,.08,0-.13,0h.19l-.14,0,.07,0-.12,0,0,0-.1-.08,0,0-.07-.1,0,0L16.8,5a.08.08,0,0,1,0,0V4.86a.27.27,0,0,1,0,.12l0-.12a.41.41,0,0,1,0,.09l.07-.1-.06.07.1-.08-.06,0,.12,0-.07,0,.14,0h0l.12,0,0,0,.1.07,0,0,.08.11,0,0,.05.12V5l0,.13v0l0,.13s0,0,0,0l-.05.12,0,0-.08.1,0,0-.1.08,0,0-.12,0h0l-.13,0H17l-.13,0,.09,0-.12,0,0,0-.1-.07a0,0,0,0,1,0,0l-.07-.1h0l0-.12v0l0-.14v0l0-.13V5l0-.12v0l.08-.1h0l.1-.08,0,0,.12,0h0l.13,0h0l.13,0h0l.12.06h0l.1.07,0,0,.08.1s0,0,0,0l.05.12a0,0,0,0,1,0,0l0,.13h0l0,.13a0,0,0,0,1,0,0l-.05.12v0l-.08.1s0,0,0,0l-.1.08h0l-.12,0h0l-.14,0h0l-.13,0h0l-.12,0h0l-.1-.08,0,0-.08-.1s0,0,0,0l-.05-.12V5l.05-.12,0,0,.08-.1,0,0,.1-.08,0,0L17,4.77h0l.13,0h0l.12,0s0,0,0,0l.1.08h0l.08.1V5l.05.12h0l0,.13s0,0,0,0l0,.14h0l-.05.12v0l-.08.1h0l-.11.08h0l-.12,0h0l-.13,0h0l-.14,0h0l-.12,0h0a.64.64,0,0,0,.18.06.44.44,0,0,0,.2,0,.47.47,0,0,0,.3-.23A.53.53,0,0,0,17.5,5l-.05-.12a.52.52,0,0,0-.18-.18Z"/></g><g class="cls-2"><path class="cls-3" d="M20.83,6.07A.38.38,0,0,0,20.7,6a.62.62,0,0,0-.27,0,.65.65,0,0,0-.23.13.58.58,0,0,0-.14.24h0l0,.14a.36.36,0,0,0,0,.14.53.53,0,0,0,.37.37.58.58,0,0,0,.32,0h0l.12,0h0a.58.58,0,0,0,.19-.19.47.47,0,0,0,.08-.3A.53.53,0,0,0,21,6.09a.55.55,0,0,0-.39-.16.51.51,0,0,0-.39.16.55.55,0,0,0-.16.39.55.55,0,0,0,.16.38.53.53,0,0,0,.52.14.55.55,0,0,0,.33-.25.6.6,0,0,0,.07-.27.52.52,0,0,0-.07-.27.56.56,0,0,0-.14-.16.85.85,0,0,0-.19-.1h0a.45.45,0,0,0-.16,0,.58.58,0,0,0-.51.29.54.54,0,0,0-.08.3.61.61,0,0,0,.08.27.38.38,0,0,0,.09.12h0l.1.08a.94.94,0,0,0,.15.06.58.58,0,0,0,.32,0A.36.36,0,0,0,20.88,7,.54.54,0,0,0,21,6.9v0l.09-.11,0,0,.06-.14a0,0,0,0,1,0,0,1,1,0,0,0,0-.17A.58.58,0,0,0,21,6a.53.53,0,0,0-.26-.15.58.58,0,0,0-.19,0H20.4l-.16.07a.63.63,0,0,0-.26.34.69.69,0,0,0,0,.32.61.61,0,0,0,.16.31.2.2,0,0,0,.07.06l.08.06a.64.64,0,0,0,.27.07A.55.55,0,0,0,20.87,7,.57.57,0,0,0,21,6.89a.53.53,0,0,0,.11-.14l0-.07a.24.24,0,0,0,0-.07.88.88,0,0,0,0-.16V6.38a.17.17,0,0,0,0-.07v0a.61.61,0,0,0-.07-.14A.83.83,0,0,0,21,6l-.13-.1h0l-.12-.05a.39.39,0,0,0-.15,0,.54.54,0,0,0-.37.16l0,0a.82.82,0,0,0-.2.33.37.37,0,0,0,0,.18.61.61,0,0,0,.08.3.4.4,0,0,0,.1.12h0l.1.08h0a.84.84,0,0,0,.31.08.4.4,0,0,0,.19,0l.15,0a.77.77,0,0,0,.16-.15.67.67,0,0,0,.1-.19v0a1.23,1.23,0,0,0,0-.2.61.61,0,0,0,0-.19.2.2,0,0,0,0-.08A.41.41,0,0,0,21.09,6a.9.9,0,0,0-.34-.2.81.81,0,0,0-.36,0l-.07,0-.07,0L20.12,6a0,0,0,0,1,0,0,.72.72,0,0,0-.15.27.4.4,0,0,0,0,.19.62.62,0,0,0,0,.19.81.81,0,0,0,.2.32l.13.09a.53.53,0,0,0,.14.06.71.71,0,0,0,.2,0h.07A.85.85,0,0,0,21,7.06.27.27,0,0,0,21.11,7h0l.09-.11v0a.52.52,0,0,0,.06-.15.63.63,0,0,0,0-.19.78.78,0,0,1,0-.16s0,0,0,0l-.06-.14,0,0A.81.81,0,0,0,21.08,6a.42.42,0,0,0-.15-.11l-.18-.08-.19,0h0l-.14,0h0l-.07,0-.07,0a.47.47,0,0,0-.12.09.58.58,0,0,0-.15.25.46.46,0,0,0,0,.2.33.33,0,0,0,.06.19.44.44,0,0,0,.13.14.46.46,0,0,0,.17.09l.13,0a.52.52,0,0,0,.25-.07l.11-.08a.48.48,0,0,0,.12-.22h0l-.05.11a0,0,0,0,1,0,0l-.08.1h0l-.1.08,0,0-.12,0h0l-.13,0h.06l-.14,0,.07,0-.12,0,.06,0-.11-.07.05,0-.08-.1,0,0-.05-.12s0,0,0,.06l0-.14a.06.06,0,0,1,0,.06l0-.14a.13.13,0,0,1,0,.06l.05-.12,0,0,.08-.1,0,0,.1-.08h0l.12,0-.05,0,.13,0h-.07l.13,0-.06,0,.12,0-.05,0,.1.08,0,0,.08.1,0,0,.05.12s0,0,0,0l0,.14V6.43l0,.13v0l-.05.11,0,0-.08.1,0,0-.1.08,0,0-.12,0h0l-.14,0h.05l-.14,0,.06,0-.12,0,.07,0-.1-.08,0,0-.08-.1s0,0,0,0l0-.12a0,0,0,0,1,0,0l0-.13a.08.08,0,0,1,0,.07l0-.14a.19.19,0,0,1,0,.08l.05-.12v0l.08-.1h0l.1-.07h0l.12,0h0l.13,0h0l.12,0h0l.1.08h0l.08.1v0l.05.12a0,0,0,0,1,0,0l0,.13v0l0,.13v0L21,6.71l0,0-.08.1L21,6.69l-.11.08h0l-.12.05h0l-.13,0h0l-.14,0h0l-.12,0h0l-.1-.08.05,0-.08-.1,0,0-.05-.12v0l0-.13v0l0-.13v0l.05-.12v0l.08-.1,0,0,.1-.08-.06,0,.12,0h0l.14,0h0l.14,0h0l.12,0h0l.1.08,0,0,.07.1s0,0,0,0l.05.12a.08.08,0,0,1,0,0l0,.13v0l0,.13v0l-.05.12v0l-.08.1h0l-.1.08h0l-.12,0h0l-.14,0h.09l-.13,0h0l-.12,0h0l-.1-.08h0l-.08-.1h0l-.05-.12V6.29a.13.13,0,0,1,0,.06l.05-.12,0,0,.08-.1,0,0,.1-.07h0l.12,0h0l.13,0h0l.14,0h0l.12,0h0l.1.08h0l.07.1v0L21,6.4v.2l-.05.12h0l-.08.1v0l-.1.08h0l-.12,0h0l-.13,0h0l-.13,0h0l-.12,0h0l-.1-.08h0l-.08-.1h0l-.05-.12h0l0-.14h0l0-.13h0l.05-.12h0l.08-.1h0l.1-.08h0L20.48,6h0l.13,0h0l.14,0h0l.12,0h0l.1.08h0l.08.1h0l.05.12v0l0,.14h0l0,.13h0L21,6.71h0l-.08.1h0l-.1.08h0l-.12,0h0l-.13,0h0l-.13,0h0l-.12,0h0l-.1-.08h0l-.08-.1h0l-.05-.12v0l0-.13v0l0-.14v0l.05-.12h0l.08-.1,0,0,.1-.08h0l.12,0h0l.13,0h0l.13,0h0l.12,0h0l.11.08h0l.08.1h0L21,6.4h0l0,.13h0l0,.13h0L21,6.76h0l-.08.1h0l-.1.08h0L20.69,7h0l-.14,0h-.12l-.12-.05h0a.42.42,0,0,0,.19.06.46.46,0,0,0,.2,0,.56.56,0,0,0,.17-.09A.58.58,0,0,0,21,6.75l0-.12a.61.61,0,0,0,0-.27l0-.12a.58.58,0,0,0-.18-.17Z"/></g></g></g></svg>