<svg xmlns="http://www.w3.org/2000/svg" viewBox="0 0 306.87 226.83"><defs><style>.cls-1{fill:#212121;}.cls-2{fill:#ffc91e;}.cls-3{fill:#00b3eb;}</style></defs><g id="Layer_2" data-name="Layer 2"><g id="Layer_1-2" data-name="Layer 1"><polygon class="cls-1" points="79.15 44.35 79.15 66.57 110.64 82.11 110.64 28.81 79.15 44.35"/><polygon class="cls-1" points="150.82 0 114.66 27.81 114.66 83.43 150.82 111.25 186.98 83.43 186.98 27.81 150.82 0"/><polygon class="cls-2" points="91.8 65.94 87.7 65.94 87.7 44.98 94.93 44.98 94.93 48.63 91.8 48.63 91.8 65.94"/><path class="cls-2" d="M102.09,52.94a4.52,4.52,0,0,1-4.46,4.69H92.7V53.94h3c2,0,2.33-1,2.33-2.42v-.68c0-1.4-.37-2.14-2.17-2.2V45h1.8a4.48,4.48,0,0,1,4.46,4.65Z"/><polygon class="cls-2" points="144.6 86.8 124.67 28.45 137.1 28.45 154.44 86.8 144.6 86.8"/><polygon class="cls-2" points="157.03 86.8 152.2 70.4 164.54 28.45 176.97 28.45 157.03 86.8"/><polygon class="cls-1" points="191.06 28.81 191.06 82.11 222.55 66.57 222.55 44.35 191.06 28.81"/><polygon class="cls-2" points="205.19 65.94 199.27 65.94 199.27 44.87 206.37 44.87 206.37 48.55 203.38 48.55 203.38 62.23 205.19 62.23 205.19 65.94"/><path class="cls-2" d="M214.35,61.26a4.54,4.54,0,0,1-4.74,4.68h-3.52V62.23h1.53c2,0,2.65-.59,2.65-2.56V51.11c0-2-.69-2.56-2.65-2.56h-.34V44.87h2.27a4.59,4.59,0,0,1,4.8,4.68Z"/><path class="cls-1" d="M57.08,187.93c0,15.43-11.16,21.7-31,21.7-8.91,0-25.73-1.26-25.73-1.26V192.82s14.93,1.5,24,1.5c13.68,0,16.18-3.38,16.18-9.28v-1.88c0-4.14-.75-7.91-8.28-8.91l-13.8-1.76C7.65,171.11,0,163,0,150.66v-7.27c0-14.68,11.16-21.33,29.48-21.33,7.15,0,18.57,1,23.46,1.38V139.5S38,137.86,30,137.86c-10.29,0-13.43,2.64-13.43,8.29v2.13c0,4.14.75,8,8.15,8.9L39,158.94c10.78,1.38,18.06,9,18.06,20.58Z"/><path class="cls-1" d="M102.22,137.32v71H85.4v-71H63.23V122.16h61.15v15.16Z"/><path class="cls-1" d="M224.43,209.71l-27.29-36.13h-1.3v36.13H178.68V121.84h17.16v36.27h1.3l27.43-36.27h19l-32.49,43.55,33.15,44.32Z"/><path class="cls-1" d="M306.87,187.67c0,15.42-11.16,21.69-31,21.69-8.91,0-25.71-1.26-25.71-1.26V192.56s14.92,1.5,23.95,1.5c13.67,0,16.17-3.38,16.17-9.27v-1.88c0-4.14-.75-7.9-8.27-8.91l-13.79-1.75c-10.78-1.38-18.43-9.53-18.43-21.82v-7.27c0-14.67,11.15-21.32,29.46-21.32,7.15,0,18.55,1,23.45,1.39v16s-14.92-1.63-22.95-1.63c-10.28,0-13.42,2.63-13.42,8.28v2.13c0,4.14.76,8,8.16,8.9l14.29,1.76c10.78,1.38,18.05,9,18.05,20.56Z"/><path class="cls-1" d="M134.58,217.32a2,2,0,0,1,2,2.07v1.15a.82.82,0,0,1-.08.4L135.48,222l1.25,1.23a.82.82,0,0,1,.08.4v1a2,2,0,0,1-2,2.07h-4.35v-9.35Zm1,2.23c0-.88-.57-1.31-1.44-1.31h-2.72v3.3h3.13l1-1Zm.18,4.11-1.21-1.19h-3.13v3.28h2.9c.87,0,1.44-.41,1.44-1.28Z"/><path class="cls-1" d="M152.1,223.91h-4l-.94,2.76h-1.08l3.22-9.35h1.61l3.22,9.35h-1.08Zm-3.68-.95h3.36l-1.61-4.66H150Z"/><path class="cls-1" d="M169.56,220.47a2.05,2.05,0,0,1-1.43,2l2.15,4.2h-1.13l-2.1-4.12h-2.48v4.12h-1v-9.35h4a2,2,0,0,1,2.05,2.07Zm-1-.92c0-.88-.57-1.31-1.44-1.31h-2.52v3.38h2.56c.88,0,1.4-.4,1.4-1.27Z"/><path class="cls-3" d="M190,220.82a.83.83,0,0,1-.09-.4v-1c0-1.35.68-2.22,2.6-2.22,1,0,2.37.15,2.37.15v1a19.63,19.63,0,0,0-2.31-.16c-1.12,0-1.63.36-1.63,1.4v.85l1.16,1.14h5.23v.93h-1.48v2.13c0,1.15-.77,2.23-3,2.23s-3-1.08-3-2.23v-1a1,1,0,0,1,.08-.4l1.25-1.23Zm4.83,3.57v-1.92h-2.73l-1.2,1.19v.73c0,.87.6,1.49,2,1.49S194.87,225.26,194.87,224.39Z"/><path class="cls-1" d="M216.91,226.67v-9.35h1v8.43h4.3v.92Z"/><path class="cls-1" d="M237.59,220.09v3.82c0,2.18-1.48,2.92-3.29,2.92s-3.29-.74-3.29-2.92v-3.82c0-2.19,1.49-2.92,3.29-2.92S237.59,217.9,237.59,220.09Zm-5.56.11v3.59a2.28,2.28,0,0,0,4.54,0V220.2a2.28,2.28,0,0,0-4.54,0Z"/><path class="cls-1" d="M247.55,223.89v-6.57h1v6.46a2.27,2.27,0,0,0,4.53,0v-6.46h1v6.57c0,2.13-1.47,2.94-3.29,2.94S247.55,226,247.55,223.89Z"/><path class="cls-1" d="M270.09,226.67l-5-7.64v7.64h-1v-9.35h1l5,7.65v-7.65h1v9.35Z"/><path class="cls-1" d="M284.59,226.83c-1.82,0-3.52-.54-3.52-2.92v-3.82c0-2.38,1.7-2.92,3.52-2.92.74,0,1.52.09,2.2.15v1a22,22,0,0,0-2.2-.16c-1.72,0-2.49.59-2.49,2.17v3.35c0,1.58.77,2.17,2.49,2.17.63,0,1.42-.07,1.88-.12v-3.25h-2v-.93h3v5.08S285.53,226.83,284.59,226.83Z"/><path class="cls-1" d="M297.37,226.67v-9.35h5.42v.92h-4.4v3.3h3.75v.93h-3.75v3.28h4.51v.92Z"/><path class="cls-1" d="M150,131.3,140,162h-8.26l13.74-39.86H147Zm-1.24-9.14h7.55L170.07,162h-8.25l-3.3-10.14H145.08l2.3-7.37h8.72Z"/><path class="cls-1" d="M145.78,193H138V181c0-10.14,7.49-12.44,15.21-12.44,3.18,0,7.61.42,10.5.65v7.14s-6.19-.71-10.15-.71c-6.89,0-7.78,2.59-7.78,9.31Zm18,16.16c-2.89.23-7.43.64-10.61.64-7.72,0-15.21-2.29-15.21-12.44v-2.59h7.78c.06,5.72,1,8,7.78,8,4,0,10.26-.71,10.26-.71Z"/></g></g></svg>