<svg xmlns="http://www.w3.org/2000/svg" viewBox="0 0 76.21 28.34"><defs><style>.cls-1{fill:#00b3eb;}</style></defs><g id="Layer_2" data-name="Layer 2"><g id="Layer_1-2" data-name="Layer 1"><path class="cls-1" d="M72.51,0,33.65,5.92S27.36,6.59,25,9.51a11.13,11.13,0,0,1-5.27,3.65L0,17.15,1.54,27.27l20-2.05a11.11,11.11,0,0,1,6.11,1.91C30.81,29.21,37,28,37,28l38.86-5.92S77.8,10.48,72.51,0ZM63.6,8.45l.47,2.89-1.57.25L62,8.71ZM31,22l-1.3-8,1.56-.26,1.3,8Zm1.9-.31-.23-1.41,2.94-.48.23,1.41Zm2.64-6.21c-.3-1.87,1-2.74,2.59-3s3.1.14,3.4,2l.09.53-1.56.25v0c-.19-1.2-.75-1.48-1.69-1.33s-1.37.59-1.17,1.8l.3,1.89-1.56.26Zm3.93,5.28c-1.55.25-3.09-.15-3.4-2L36,18.18l1.56-.25c.2,1.21.75,1.49,1.69,1.34s1.37-.59,1.18-1.81l-.31-1.87,1.57-.25.38,2.39C42.36,19.6,41,20.46,39.46,20.72Zm3.63-6.51c-.33-2,1.1-2.74,2.65-3,.64-.11,1.54-.17,2.13-.21l.23,1.43s-1.27.06-2.06.19c-1.38.22-1.48.77-1.26,2.12l.26,1.6-1.56.25Zm4,5.27c-1.55.25-3.13,0-3.46-2L43.54,17l1.56-.26c.2,1.15.46,1.58,1.82,1.36.24,0,.52-.08.8-.15L48,19.3C47.63,19.38,47.35,19.44,47.08,19.48Zm1.21-.25-.54-3.35-1.49.25L46,14.72l3-.5.75,4.63ZM50.43,13c-.3-1.87,1-2.73,2.59-3s3.1.14,3.4,2l.09.52L55,12.82v0c-.19-1.21-.75-1.48-1.68-1.33s-1.38.58-1.18,1.79l.3,1.9-1.56.25Zm3.93,5.28c-1.55.25-3.09-.14-3.4-2l-.08-.53,1.56-.25c.2,1.21.75,1.5,1.69,1.34s1.38-.58,1.18-1.8L55,13.18l1.57-.26L57,15.31C57.26,17.18,55.92,18.05,54.36,18.3Zm3.25-8.87,1.56-.26.77,4.76-1.56.25Zm4.31,7.64c-1.56.26-3.12-.27-3.4-2l-.08-.51L60,14.29l0,.17A1.45,1.45,0,1,0,62.89,14L62.56,12l1.56-.25.39,2.38C64.79,15.83,63.48,16.82,61.92,17.07ZM67.81,16,66.74,9.39l-2.06.33-.23-1.4,3.63-.59,1.29,8Zm.84-6.9-.23-1.41,1.72-.28.22,1.41Z"/></g></g></svg>