<svg xmlns="http://www.w3.org/2000/svg" viewBox="0 0 143.4 111.24"><defs><style>.cls-1{fill:#212121;}.cls-2{fill:#ffc91e;}</style></defs><g id="Layer_2" data-name="Layer 2"><g id="Layer_1-2" data-name="Layer 1"><polygon class="cls-1" points="0 44.35 0 66.57 31.49 82.11 31.49 28.81 0 44.35"/><polygon class="cls-1" points="71.67 0 35.51 27.81 35.51 83.43 71.67 111.25 107.82 83.43 107.82 27.81 71.67 0"/><polygon class="cls-2" points="12.64 65.94 8.55 65.94 8.55 44.98 15.78 44.98 15.78 48.63 12.64 48.63 12.64 65.94"/><path class="cls-2" d="M22.94,52.94a4.52,4.52,0,0,1-4.47,4.69H13.54V53.94h3c1.95,0,2.32-1,2.32-2.42v-.68c0-1.4-.37-2.14-2.17-2.2V45h1.8a4.49,4.49,0,0,1,4.47,4.65Z"/><polygon class="cls-2" points="65.45 86.8 45.51 28.45 57.94 28.45 75.29 86.8 65.45 86.8"/><polygon class="cls-2" points="77.88 86.8 73.05 70.4 85.39 28.45 97.82 28.45 77.88 86.8"/><polygon class="cls-1" points="111.91 28.81 111.91 82.11 143.4 66.57 143.4 44.35 111.91 28.81"/><polygon class="cls-2" points="126.04 65.94 120.12 65.94 120.12 44.87 127.22 44.87 127.22 48.55 124.23 48.55 124.23 62.23 126.04 62.23 126.04 65.94"/><path class="cls-2" d="M135.2,61.26a4.54,4.54,0,0,1-4.74,4.68h-3.52V62.23h1.53c2,0,2.64-.59,2.64-2.56V51.11c0-2-.68-2.56-2.64-2.56h-.35V44.87h2.28a4.59,4.59,0,0,1,4.8,4.68Z"/></g></g></svg>