<svg xmlns="http://www.w3.org/2000/svg" viewBox="0 0 46.68 53.9"><defs><style>.cls-1{fill:#212121;}.cls-2{fill:#fff;}</style></defs><g id="Layer_2" data-name="Layer 2"><g id="Layer_1-2" data-name="Layer 1"><polygon class="cls-1" points="46.68 40.42 46.68 13.47 23.34 0 0 13.47 0 40.42 23.34 53.9 46.68 40.42"/><path class="cls-2" d="M8.51,27.68l1.64-3.56h.63v5.66h-.62V25.53h0L8.78,28.41H8.16L6.81,25.53h0v4.25H6.16V24.12H6.8l1.63,3.56Z"/><path class="cls-2" d="M16.3,28.1H13.88l-.57,1.68h-.66l2-5.66h1l2,5.66h-.65Zm-2.23-.56h2l-1-2.83h-.08Z"/><path class="cls-2" d="M23,26a1.22,1.22,0,0,1-.86,1.2l1.3,2.55h-.68l-1.27-2.5H20v2.5H19.4V24.12h2.4A1.21,1.21,0,0,1,23,25.37Zm-.61-.56c0-.53-.35-.79-.88-.79H20v2h1.55c.53,0,.85-.24.85-.77Z"/><path class="cls-2" d="M26.84,24.68v5.1h-.62v-5.1H24.59v-.56h3.88v.56Z"/><path class="cls-2" d="M30.28,29.78V24.12h.62v5.66Z"/><path class="cls-2" d="M36.9,29.78l-3-4.62v4.62h-.62V24.12h.61l3,4.63V24.12h.62v5.66Z"/><path class="cls-2" d="M39.9,29.78V24.12h.62v5.66Z"/></g></g></svg>