<svg xmlns="http://www.w3.org/2000/svg" viewBox="0 0 46.68 53.9"><defs><style>.cls-1{fill:#212121;}.cls-2{fill:#fff;}</style></defs><g id="Layer_2" data-name="Layer 2"><g id="Layer_1-2" data-name="Layer 1"><polygon class="cls-1" points="46.68 40.42 46.68 13.47 23.34 0 0 13.47 0 40.42 23.34 53.9 46.68 40.42"/><path class="cls-2" d="M13.25,27.68l1.63-3.56h.64v5.66H14.9V25.53h0l-1.35,2.88h-.62l-1.35-2.88h0v4.25h-.62V24.12h.64l1.63,3.56Z"/><path class="cls-2" d="M17.89,29.78V24.12h.62v5.66Z"/><path class="cls-2" d="M22.73,27.41l-1.51,2.37h-.73L22.35,27h0l-1.86-2.85h.72l1.52,2.39,1.53-2.39H25L23.12,27h0L25,29.78h-.73Z"/><path class="cls-2" d="M26.79,29.78V24.12h3.28v.56H27.41v2h2.27v.56H27.41v2h2.73v.56Z"/><path class="cls-2" d="M35.79,28.52a1.24,1.24,0,0,1-1.24,1.26H32V24.12h2.59a1.23,1.23,0,0,1,1.23,1.25Zm-.62-3.07c0-.53-.35-.77-.88-.77h-1.7v4.54h1.7c.53,0,.88-.24.88-.77Z"/></g></g></svg>