<svg xmlns="http://www.w3.org/2000/svg" viewBox="0 0 76.21 28.34"><defs><style>.cls-1{fill:#00b3eb;}</style></defs><g id="Layer_2" data-name="Layer 2"><g id="Layer_1-2" data-name="Layer 1"><path class="cls-1" d="M56.51,13.16a11.08,11.08,0,0,1-5.26-3.65c-2.4-2.92-8.69-3.59-8.69-3.59L3.7,0C-1.59,10.48.34,22.06.34,22.06L39.2,28s6.21,1.23,9.36-.85a11.13,11.13,0,0,1,6.12-1.91l20,2.05,1.54-10.12ZM11.35,17l1.1-8,1.51.2-1.1,8Zm4.26-1.4-1.07-.15-.77-2.52.41-3,1.58,5.45Zm0-2.18,1.88-3.06-.41,3L16,15Zm2.71,4.53-1.51-.21,1.1-8,1.51.2Zm7.91-1.34c-.26,1.88-1.79,2.31-3.35,2.09s-2.92-1-2.66-2.91l.07-.53,1.57.22c-.17,1.21.28,1.65,1.22,1.77s1.49-.16,1.65-1.38L24.94,14l1.57.22Zm.45-3.28-.07.52L25,13.63v0c.17-1.21-.28-1.63-1.22-1.76s-1.49.16-1.65,1.37l-.26,1.9-1.57-.21.33-2.4c.25-1.88,1.8-2.31,3.34-2.1S26.89,11.44,26.63,13.32Zm.8,5.87,1.1-8,2.76.38-.19,1.4-1.2-.17L29,19.4Zm4.48.61-1.09-3.11,1.7.23L33.62,20Zm1.89-6.11L33.62,15a1.75,1.75,0,0,1-1.95,1.57l-1.89-.26L30,14.85l1.14.16c.75.1.94-.25,1-.81l0-.26c.08-.53,0-.84-.71-1l.19-1.4.69.1A1.74,1.74,0,0,1,33.8,13.69Zm5.88,7.18-5-.7,1.1-8,.86.12.52,1.5L36.39,19l3.49.47Zm-2.49-5.15,2.48.34-.19,1.41L37,17.13Zm3.3-1.5-3-.41L37,12.31l3.74.51Z"/></g></g></svg>