<svg xmlns="http://www.w3.org/2000/svg" viewBox="0 0 23.12 27.61"><defs><style>.cls-1{fill:#fec425;}.cls-2{fill:none;stroke:#00b3eb;stroke-miterlimit:10;}.cls-3{fill:#fffefa;}</style></defs><g id="Layer_2" data-name="Layer 2"><g id="Layer_1-2" data-name="Layer 1"><polygon class="cls-1" points="23.12 22.72 12.82 26.55 2.04 6.23 18.2 0.23 23.12 22.72"/><polygon class="cls-2" points="21.79 23.16 11.49 26.99 0.71 6.67 16.87 0.67 21.79 23.16"/><path class="cls-3" d="M10.79,12.94s0,0,0,.05a.06.06,0,0,0,.08,0,.11.11,0,0,0,.07-.08.09.09,0,0,0-.06-.09.08.08,0,0,0-.09.05s0,.08.07.07a.05.05,0,0,0,0-.09l-.06,0a.13.13,0,0,0-.14.08c0,.05,0,.12.07.14a.16.16,0,0,0,.16-.07.21.21,0,0,0,0-.17.12.12,0,0,0,0-.1.14.14,0,0,0-.14,0c-.06,0-.13,0-.14.11s0,.07,0,.1a.28.28,0,0,0,.09.1.15.15,0,0,0,.13,0l.05,0a.23.23,0,0,0,.07-.17.2.2,0,0,0-.15-.12h0l0,0a.61.61,0,0,0-.05.18.16.16,0,0,0,.09.16.29.29,0,0,0,.13,0s.08,0,.09-.06a.08.08,0,0,0,0-.08c0-.08,0-.17-.09-.21a.16.16,0,0,0-.09,0,.28.28,0,0,0-.18,0,.21.21,0,0,0-.1.23.26.26,0,0,0,.18.17.33.33,0,0,0,.26,0s.05,0,.06-.05a.14.14,0,0,0,0-.09.29.29,0,0,0-.12-.25.37.37,0,0,0-.29,0,.18.18,0,0,0-.14.15"/><path class="cls-3" d="M15.2,11s0,0,0,0a.1.1,0,0,0,.07,0,.12.12,0,0,0,.08-.09.1.1,0,0,0-.06-.09.08.08,0,0,0-.09.05.07.07,0,0,0,.07.08s.06-.07,0-.09a.07.07,0,0,0-.06,0,.17.17,0,0,0-.15.07.11.11,0,0,0,.08.14A.17.17,0,0,0,15.3,11a.25.25,0,0,0,0-.17.14.14,0,0,0,0-.11s-.09,0-.14,0-.13.05-.14.11a.12.12,0,0,0,0,.1.22.22,0,0,0,.09.1.12.12,0,0,0,.13,0l0,0a.17.17,0,0,0,.07-.17c0-.06-.08-.1-.14-.12h0s0,0,0,0a.6.6,0,0,0-.06.19.16.16,0,0,0,.1.15.17.17,0,0,0,.12,0,.17.17,0,0,0,.1-.06s0-.06,0-.09a.29.29,0,0,0-.09-.21l-.09,0a.28.28,0,0,0-.18,0A.21.21,0,0,0,15,11a.25.25,0,0,0,.18.18.34.34,0,0,0,.26,0l.06,0a.11.11,0,0,0,0-.08.3.3,0,0,0-.12-.26.37.37,0,0,0-.29,0c-.07,0-.14.07-.14.14"/><path class="cls-3" d="M14.26,14.53c-.08,0-.16.09-.11.16a.2.2,0,0,0,.23.06.34.34,0,0,0,.24-.26.28.28,0,0,0-.18-.3.24.24,0,0,0-.29.17.2.2,0,0,0,.22.23.18.18,0,0,0,.09-.29.27.27,0,0,0-.2-.06.48.48,0,0,0-.46.24.35.35,0,0,0,.26.44.5.5,0,0,0,.5-.2.89.89,0,0,0,.14-.55.46.46,0,0,0-.14-.34c-.12-.09-.3,0-.45,0s-.41.16-.45.36a.45.45,0,0,0,.07.31.73.73,0,0,0,.28.32.42.42,0,0,0,.42,0,.53.53,0,0,0,.14-.12.63.63,0,0,0,.23-.56.68.68,0,0,0-.47-.38.12.12,0,0,0-.1,0s-.06.06-.08.09a1.44,1.44,0,0,0-.18.6.5.5,0,0,0,.3.5.78.78,0,0,0,.4,0,.47.47,0,0,0,.32-.18.44.44,0,0,0,0-.28.87.87,0,0,0-.3-.68.84.84,0,0,0-.28-.09.89.89,0,0,0-.58.06.67.67,0,0,0-.32.73.82.82,0,0,0,.59.58A1.1,1.1,0,0,0,15,15a.7.7,0,0,0,.19-.15.47.47,0,0,0,.09-.28.91.91,0,0,0-.39-.82,1.13,1.13,0,0,0-.91-.15c-.23.07-.46.24-.45.47"/><path class="cls-3" d="M9,8.75c-.08,0-.15.09-.11.17A.22.22,0,0,0,9.08,9a.35.35,0,0,0,.24-.27.26.26,0,0,0-.18-.29.23.23,0,0,0-.29.16.21.21,0,0,0,.22.24.18.18,0,0,0,.1-.29A.28.28,0,0,0,9,8.47a.44.44,0,0,0-.46.23.35.35,0,0,0,.25.45.49.49,0,0,0,.5-.21.82.82,0,0,0,.14-.55.38.38,0,0,0-.14-.33.49.49,0,0,0-.44,0c-.2.07-.42.16-.46.36a.48.48,0,0,0,.07.31.81.81,0,0,0,.28.33.45.45,0,0,0,.42,0A.83.83,0,0,0,9.28,9a.67.67,0,0,0,.22-.56C9.45,8.21,9.23,8.1,9,8,9,8,9,8,8.93,8s-.06.05-.08.09a1.4,1.4,0,0,0-.18.59.51.51,0,0,0,.31.5.75.75,0,0,0,.39,0A.46.46,0,0,0,9.69,9a.38.38,0,0,0,0-.28A.85.85,0,0,0,9.41,8a.68.68,0,0,0-.27-.1A1,1,0,0,0,8.55,8a.66.66,0,0,0-.31.74.81.81,0,0,0,.58.58,1.1,1.1,0,0,0,.83-.13A.4.4,0,0,0,9.84,9a.56.56,0,0,0,.1-.27,1,1,0,0,0-.4-.83,1.08,1.08,0,0,0-.91-.14c-.23.06-.46.23-.45.47"/><path class="cls-3" d="M16.28,19c-.08,0-.15.09-.1.16a.2.2,0,0,0,.23.07.36.36,0,0,0,.24-.27.3.3,0,0,0-.18-.3.26.26,0,0,0-.3.17c0,.12.1.26.22.23a.17.17,0,0,0,.1-.28.25.25,0,0,0-.2-.07.48.48,0,0,0-.46.24.37.37,0,0,0,.25.45.52.52,0,0,0,.51-.21.89.89,0,0,0,.14-.55.44.44,0,0,0-.14-.33.48.48,0,0,0-.45,0c-.19.06-.42.16-.46.36a.48.48,0,0,0,.07.31.84.84,0,0,0,.29.33.45.45,0,0,0,.42,0,.53.53,0,0,0,.14-.12.62.62,0,0,0,.23-.55c-.06-.21-.27-.31-.47-.39,0,0-.07,0-.1,0a.2.2,0,0,0-.08.1,1.57,1.57,0,0,0-.19.59.51.51,0,0,0,.31.5.69.69,0,0,0,.4,0A.47.47,0,0,0,17,19.2a.52.52,0,0,0,0-.28.88.88,0,0,0-.3-.68.84.84,0,0,0-.28-.09,1,1,0,0,0-.58.06.67.67,0,0,0-.32.74.81.81,0,0,0,.59.57A1.06,1.06,0,0,0,17,19.4a.46.46,0,0,0,.28-.43,1,1,0,0,0-.39-.82A1.1,1.1,0,0,0,16,18c-.22.06-.45.23-.45.47"/><path class="cls-3" d="M15.14,5.23c-.08,0-.16.09-.11.16a.2.2,0,0,0,.23.07.36.36,0,0,0,.24-.27.28.28,0,0,0-.18-.3.24.24,0,0,0-.29.17.2.2,0,0,0,.22.23A.18.18,0,0,0,15.34,5a.28.28,0,0,0-.2-.06.48.48,0,0,0-.46.24.36.36,0,0,0,.26.45.5.5,0,0,0,.5-.21.89.89,0,0,0,.14-.55.44.44,0,0,0-.14-.33c-.12-.1-.3,0-.45,0s-.41.16-.45.36a.42.42,0,0,0,.06.31.84.84,0,0,0,.29.33.45.45,0,0,0,.42,0,.53.53,0,0,0,.14-.12.62.62,0,0,0,.23-.55c-.06-.21-.27-.31-.47-.39,0,0-.07,0-.1,0a.2.2,0,0,0-.08.1,1.4,1.4,0,0,0-.18.59.49.49,0,0,0,.3.5.69.69,0,0,0,.4,0,.47.47,0,0,0,.32-.18.44.44,0,0,0,0-.28.88.88,0,0,0-.3-.68.84.84,0,0,0-.28-.09,1,1,0,0,0-.58.06.67.67,0,0,0-.32.74.81.81,0,0,0,.59.57,1.05,1.05,0,0,0,.83-.12.46.46,0,0,0,.28-.43.94.94,0,0,0-.39-.82,1.09,1.09,0,0,0-.91-.14c-.23.06-.46.23-.45.47"/><path class="cls-3" d="M15.66,22.88s-.05,0,0,.05,0,0,.08,0a.11.11,0,0,0,.08-.09.1.1,0,0,0-.06-.1.09.09,0,0,0-.1.06s0,.09.07.08.07-.07,0-.1a.1.1,0,0,0-.07,0c-.07,0-.14,0-.16.08a.11.11,0,0,0,.09.15.15.15,0,0,0,.17-.07.3.3,0,0,0,.05-.19s0-.09-.05-.11a.16.16,0,0,0-.15,0c-.07,0-.15.06-.16.12a.2.2,0,0,0,0,.11.27.27,0,0,0,.1.11.14.14,0,0,0,.14,0,.1.1,0,0,0,0,0,.21.21,0,0,0,.08-.19.21.21,0,0,0-.16-.13h0s0,0,0,0a.56.56,0,0,0-.06.21.16.16,0,0,0,.1.17.34.34,0,0,0,.14,0,.24.24,0,0,0,.11-.06.17.17,0,0,0,0-.1c0-.09,0-.19-.1-.23a.16.16,0,0,0-.09,0,.38.38,0,0,0-.21,0,.22.22,0,0,0-.1.25.29.29,0,0,0,.2.2.45.45,0,0,0,.28,0A.2.2,0,0,0,16,23a.14.14,0,0,0,0-.09.31.31,0,0,0-.14-.28.34.34,0,0,0-.31-.05.18.18,0,0,0-.15.16"/><path class="cls-3" d="M12.29,10.35s0,0,0,.05a.06.06,0,0,0,.08,0,.1.1,0,0,0,.08-.09.08.08,0,1,0-.16,0,.07.07,0,0,0,.08.08.06.06,0,0,0,0-.1.1.1,0,0,0-.07,0,.17.17,0,0,0-.16.08.13.13,0,0,0,.09.15.15.15,0,0,0,.17-.07.3.3,0,0,0,0-.19.12.12,0,0,0,0-.11.16.16,0,0,0-.15,0,.23.23,0,0,0-.16.12.14.14,0,0,0,0,.11.2.2,0,0,0,.09.11.16.16,0,0,0,.15,0l.05,0a.2.2,0,0,0,.07-.19.21.21,0,0,0-.16-.13h0l0,0a.56.56,0,0,0-.06.21.18.18,0,0,0,.1.17.32.32,0,0,0,.14,0,.2.2,0,0,0,.11-.06.34.34,0,0,0,0-.1c0-.09,0-.19-.11-.23a.14.14,0,0,0-.09,0,.34.34,0,0,0-.2,0,.22.22,0,0,0-.11.25.29.29,0,0,0,.2.2.48.48,0,0,0,.29,0,.34.34,0,0,0,.06-.06.14.14,0,0,0,0-.09.31.31,0,0,0-.13-.28.35.35,0,0,0-.31-.05c-.08,0-.16.08-.16.16"/><path class="cls-3" d="M7.06,11.22s0,0,0,.06a.08.08,0,0,0,.08,0,.11.11,0,0,0,.08-.09.09.09,0,0,0-.06-.1.07.07,0,0,0-.1.05.07.07,0,0,0,.08.08s.06-.07,0-.1l-.07,0a.18.18,0,0,0-.16.09.13.13,0,0,0,.09.15.19.19,0,0,0,.17-.07.34.34,0,0,0,0-.19.15.15,0,0,0,0-.12s-.1,0-.15,0-.14.06-.16.13a.26.26,0,0,0,0,.11.31.31,0,0,0,.09.11.2.2,0,0,0,.15,0l0-.05a.2.2,0,0,0,.07-.19c0-.07-.09-.1-.16-.13h0l0,0a.47.47,0,0,0-.06.2.18.18,0,0,0,.1.17.22.22,0,0,0,.14,0s.09,0,.11-.06a.31.31,0,0,0,0-.1A.3.3,0,0,0,7.21,11s-.06,0-.09,0a.34.34,0,0,0-.2,0,.23.23,0,0,0-.11.25.27.27,0,0,0,.2.2.37.37,0,0,0,.29,0l.06,0a.17.17,0,0,0,0-.1.31.31,0,0,0-.13-.28.38.38,0,0,0-.31,0c-.08,0-.16.08-.16.16"/><path class="cls-3" d="M13.14,17.89s-.05,0,0,.06a.08.08,0,0,0,.08,0,.12.12,0,0,0,.09-.09.1.1,0,0,0-.07-.1.07.07,0,0,0-.1,0s0,.09.08.08.06-.07,0-.1l-.07,0a.16.16,0,0,0-.15.08.12.12,0,0,0,.08.16.2.2,0,0,0,.18-.07.33.33,0,0,0,0-.19.16.16,0,0,0,0-.12.22.22,0,0,0-.16,0c-.06,0-.14.06-.15.13a.12.12,0,0,0,0,.1.23.23,0,0,0,.1.12.14.14,0,0,0,.14,0,.1.1,0,0,0,.05,0,.21.21,0,0,0,.08-.19c0-.07-.1-.1-.16-.13h0a.05.05,0,0,0,0,0,.37.37,0,0,0-.07.2.18.18,0,0,0,.11.17.29.29,0,0,0,.13,0c.05,0,.09,0,.11-.06s0-.06,0-.1a.33.33,0,0,0-.1-.23.29.29,0,0,0-.1,0,.34.34,0,0,0-.2,0,.23.23,0,0,0-.11.25.31.31,0,0,0,.2.2.37.37,0,0,0,.29,0,.15.15,0,0,0,.06-.05.3.3,0,0,0,0-.1.34.34,0,0,0-.14-.28.38.38,0,0,0-.31-.05c-.08,0-.16.08-.16.16"/><path class="cls-3" d="M14.32,7.82a0,0,0,0,0,0,0s.05,0,.07,0a.11.11,0,0,0,.09-.09.1.1,0,0,0-.07-.1.09.09,0,0,0-.1.06s0,.09.08.08a.06.06,0,0,0,0-.1s0,0-.07,0a.15.15,0,0,0-.15.08.11.11,0,0,0,.08.15.16.16,0,0,0,.18-.07.25.25,0,0,0,0-.19.15.15,0,0,0,0-.11.18.18,0,0,0-.16,0c-.06,0-.14.06-.15.12a.14.14,0,0,0,0,.11.18.18,0,0,0,.1.11.14.14,0,0,0,.14,0,.1.1,0,0,0,0,0,.21.21,0,0,0,.08-.19.21.21,0,0,0-.16-.13h0l0,0a.58.58,0,0,0-.07.21.18.18,0,0,0,.11.17.29.29,0,0,0,.13,0,.17.17,0,0,0,.11-.06.12.12,0,0,0,0-.1.31.31,0,0,0-.1-.23.17.17,0,0,0-.1,0,.35.35,0,0,0-.2,0,.22.22,0,0,0-.11.25.3.3,0,0,0,.21.2.45.45,0,0,0,.28,0s0,0,.06-.06,0-.06,0-.09a.31.31,0,0,0-.14-.28.35.35,0,0,0-.31,0c-.08,0-.16.08-.15.16"/><path class="cls-3" d="M10.51,5.37s0,0,0,0a.07.07,0,0,0,.08,0,.1.1,0,0,0,.08-.09.08.08,0,0,0-.16,0s0,.09.08.08a.06.06,0,0,0,0-.1.08.08,0,0,0-.07,0,.15.15,0,0,0-.15.08.11.11,0,0,0,.08.15.16.16,0,0,0,.17-.07.25.25,0,0,0,.05-.19.14.14,0,0,0,0-.11.18.18,0,0,0-.16,0c-.06,0-.14,0-.15.12a.14.14,0,0,0,0,.11.21.21,0,0,0,.1.11.14.14,0,0,0,.14,0l0,0a.21.21,0,0,0,.08-.19.23.23,0,0,0-.16-.13h0l0,0a.51.51,0,0,0-.06.21.18.18,0,0,0,.11.17.29.29,0,0,0,.13,0,.2.2,0,0,0,.11-.06.17.17,0,0,0,0-.1c0-.09,0-.19-.1-.23a.19.19,0,0,0-.1,0,.27.27,0,0,0-.2,0,.22.22,0,0,0-.11.25.33.33,0,0,0,.2.2.42.42,0,0,0,.29,0,.15.15,0,0,0,.06,0,.25.25,0,0,0,0-.09.34.34,0,0,0-.14-.28.35.35,0,0,0-.31,0c-.08,0-.16.08-.16.16"/></g></g></svg>