<svg xmlns="http://www.w3.org/2000/svg" viewBox="0 0 46.68 53.9"><defs><style>.cls-1{fill:#212121;}.cls-2{fill:#fff;}</style></defs><g id="Layer_2" data-name="Layer 2"><g id="Layer_1-2" data-name="Layer 1"><polygon class="cls-1" points="46.68 40.42 46.68 13.47 23.34 0 0 13.47 0 40.42 23.34 53.9 46.68 40.42"/><path class="cls-2" d="M13.84,28.42c0,1-.62,1.45-1.87,1.45-.88,0-1.67-.08-1.67-.08v-.6s.92.09,1.63.09c.88,0,1.29-.26,1.29-.9v-.31c0-.41-.21-.7-.78-.77l-.94-.12a1.29,1.29,0,0,1-1.22-1.29v-.42c0-1,.63-1.44,1.82-1.44a13.7,13.7,0,0,1,1.46.09v.6s-.84-.1-1.37-.1c-.88,0-1.29.26-1.29.9v.29c0,.41.2.7.77.77l.95.12A1.26,1.26,0,0,1,13.84,28Z"/><path class="cls-2" d="M19.23,29.78V27.23H16.48v2.55h-.62V24.12h.62v2.55h2.75V24.12h.62v5.66Z"/><path class="cls-2" d="M26,25.79V28.1c0,1.33-.9,1.77-2,1.77s-2-.44-2-1.77V25.79c0-1.32.9-1.76,2-1.76S26,24.47,26,25.79Zm-3.37.07V28c0,.89.58,1.26,1.37,1.26s1.38-.37,1.38-1.26V25.86A1.21,1.21,0,0,0,24,24.59,1.2,1.2,0,0,0,22.67,25.86Z"/><path class="cls-2" d="M29.67,24.68v5.1h-.62v-5.1H27.42v-.56h3.89v.56Z"/><path class="cls-2" d="M36.4,28.42c0,1-.62,1.45-1.87,1.45-.88,0-1.66-.08-1.66-.08v-.6s.92.09,1.62.09c.88,0,1.29-.26,1.29-.9v-.31c0-.41-.2-.7-.77-.77l-.95-.12a1.29,1.29,0,0,1-1.22-1.29v-.42c0-1,.64-1.44,1.83-1.44a13.49,13.49,0,0,1,1.45.09v.6s-.83-.1-1.37-.1c-.88,0-1.29.26-1.29.9v.29c0,.41.2.7.77.77l1,.12A1.26,1.26,0,0,1,36.4,28Z"/></g></g></svg>