<svg xmlns="http://www.w3.org/2000/svg" viewBox="0 0 22.16 29.87"><defs><style>.cls-1{fill:#fec425;}.cls-2{fill:#fffefa;}.cls-3{fill:none;stroke:#00b3eb;stroke-miterlimit:10;}</style></defs><g id="Layer_2" data-name="Layer 2"><g id="Layer_1-2" data-name="Layer 1"><path class="cls-1" d="M20.13,5.64a21,21,0,0,1-4.52,8c-7.32,8.24-8.87,15-8.87,15L0,26.24S3.11,20,2.66,9c0,0-.25-5.09,1.8-8.93L20.4,5.74"/><path class="cls-2" d="M11,14.16s0,0,0,.05-.05,0-.07,0a.11.11,0,0,1-.08-.08.09.09,0,0,1,.06-.09.07.07,0,0,1,.09,0,.06.06,0,0,1-.07.07.05.05,0,0,1,0-.09l.06,0a.15.15,0,0,1,.15.08.1.1,0,0,1-.08.13.15.15,0,0,1-.16-.06.33.33,0,0,1,0-.17.12.12,0,0,1,0-.1.14.14,0,0,1,.14,0c.06,0,.13.05.14.11a.12.12,0,0,1,0,.1.28.28,0,0,1-.09.1.12.12,0,0,1-.13,0l0,0a.19.19,0,0,1-.07-.18c0-.06.08-.09.14-.12h0s0,0,0,0a.43.43,0,0,1,.06.18.17.17,0,0,1-.1.16.25.25,0,0,1-.12,0,.13.13,0,0,1-.1-.06s0-.05,0-.08a.29.29,0,0,1,.09-.21l.09,0a.28.28,0,0,1,.18,0,.2.2,0,0,1,.1.22.25.25,0,0,1-.18.18.34.34,0,0,1-.26,0l-.06-.05a.32.32,0,0,1,0-.09.3.3,0,0,1,.13-.25.34.34,0,0,1,.28-.05.18.18,0,0,1,.14.15"/><path class="cls-2" d="M6.62,12.19s0,0,0,.05,0,0-.07,0a.1.1,0,0,1-.07-.09.08.08,0,0,1,0-.09.08.08,0,0,1,.09.05.07.07,0,0,1-.07.08s0-.07,0-.09a.08.08,0,0,1,.07,0,.15.15,0,0,1,.14.07.11.11,0,0,1-.08.14.19.19,0,0,1-.16-.06.37.37,0,0,1,0-.18.13.13,0,0,1,0-.1s.1,0,.14,0,.13,0,.14.11a.12.12,0,0,1,0,.1.22.22,0,0,1-.09.1.15.15,0,0,1-.13,0l0,0a.17.17,0,0,1-.07-.17A.21.21,0,0,1,6.59,12h0l0,0a.42.42,0,0,1,.06.19.15.15,0,0,1-.1.15.13.13,0,0,1-.12,0,.12.12,0,0,1-.1-.05.28.28,0,0,1,0-.09.27.27,0,0,1,.1-.21s0,0,.08,0a.31.31,0,0,1,.19,0,.22.22,0,0,1,.09.23.25.25,0,0,1-.18.18.39.39,0,0,1-.26,0l-.06-.05a.19.19,0,0,1,0-.08.3.3,0,0,1,.12-.26.35.35,0,0,1,.28,0c.07,0,.14.07.14.14"/><path class="cls-2" d="M7.57,15.75c.08,0,.15.09.1.16a.2.2,0,0,1-.23.06.34.34,0,0,1-.24-.26.28.28,0,0,1,.19-.3.23.23,0,0,1,.29.17.21.21,0,0,1-.22.23.18.18,0,0,1-.1-.29.28.28,0,0,1,.2-.06A.48.48,0,0,1,8,15.7a.35.35,0,0,1-.25.44.51.51,0,0,1-.51-.2,1,1,0,0,1-.14-.55.46.46,0,0,1,.14-.34.51.51,0,0,1,.45,0c.19.06.42.16.46.36a.51.51,0,0,1-.07.31.75.75,0,0,1-.29.32.42.42,0,0,1-.42,0A.81.81,0,0,1,7.25,16,.6.6,0,0,1,7,15.4c0-.2.26-.31.46-.38a.12.12,0,0,1,.1,0s.06.06.08.09a1.62,1.62,0,0,1,.19.6.52.52,0,0,1-.31.5.78.78,0,0,1-.4,0A.49.49,0,0,1,6.83,16a.53.53,0,0,1,0-.28.87.87,0,0,1,.3-.68.84.84,0,0,1,.28-.09A.92.92,0,0,1,8,15a.66.66,0,0,1,.31.73.84.84,0,0,1-.59.58,1.1,1.1,0,0,1-.83-.12A.7.7,0,0,1,6.68,16a.55.55,0,0,1-.09-.28.92.92,0,0,1,.4-.82,1.11,1.11,0,0,1,.91-.15c.22.06.45.24.45.47"/><path class="cls-2" d="M12.87,10c.07,0,.15.09.1.17a.21.21,0,0,1-.23.06.35.35,0,0,1-.24-.27.28.28,0,0,1,.18-.29A.23.23,0,0,1,13,9.8a.2.2,0,0,1-.21.24.18.18,0,0,1-.1-.29.35.35,0,0,1,.2-.07.48.48,0,0,1,.46.24.37.37,0,0,1-.25.45.5.5,0,0,1-.51-.21.89.89,0,0,1-.14-.55.44.44,0,0,1,.14-.33.51.51,0,0,1,.45,0c.19.06.41.16.45.36a.42.42,0,0,1-.06.31.84.84,0,0,1-.29.33.45.45,0,0,1-.42,0,.53.53,0,0,1-.14-.12.62.62,0,0,1-.23-.55c.06-.21.27-.31.47-.39,0,0,.07,0,.1,0s.06,0,.08.09a1.57,1.57,0,0,1,.19.59.51.51,0,0,1-.31.5.69.69,0,0,1-.4,0,.47.47,0,0,1-.32-.18.52.52,0,0,1,0-.28.88.88,0,0,1,.3-.68.84.84,0,0,1,.28-.09,1,1,0,0,1,.58.06.67.67,0,0,1,.32.74.84.84,0,0,1-.59.58,1.1,1.1,0,0,1-.83-.13.46.46,0,0,1-.28-.43.94.94,0,0,1,.39-.82A1.09,1.09,0,0,1,13.19,9c.23.06.46.23.45.47"/><path class="cls-2" d="M5.54,20.19c.08,0,.15.09.11.16a.19.19,0,0,1-.23.06.32.32,0,0,1-.24-.26.28.28,0,0,1,.18-.3.25.25,0,0,1,.29.17c0,.12-.1.26-.22.23a.18.18,0,0,1-.1-.29.28.28,0,0,1,.2-.06.47.47,0,0,1,.46.24.36.36,0,0,1-.25.45.51.51,0,0,1-.5-.21.83.83,0,0,1-.14-.55.39.39,0,0,1,.13-.33.48.48,0,0,1,.45,0c.2.06.42.16.46.36a.49.49,0,0,1-.07.31.9.9,0,0,1-.28.33.45.45,0,0,1-.42,0,.57.57,0,0,1-.15-.12A.62.62,0,0,1,5,19.84c0-.2.27-.31.46-.38,0,0,.07,0,.11,0a.2.2,0,0,1,.08.1,1.5,1.5,0,0,1,.18.59.51.51,0,0,1-.31.5.69.69,0,0,1-.4,0,.45.45,0,0,1-.31-.18.44.44,0,0,1,0-.28,1,1,0,0,1,.3-.68,1,1,0,0,1,.28-.09,1,1,0,0,1,.59.06.67.67,0,0,1,.31.74.81.81,0,0,1-.58.57,1.12,1.12,0,0,1-.84-.12.65.65,0,0,1-.18-.15.56.56,0,0,1-.1-.28,1,1,0,0,1,.4-.82,1.12,1.12,0,0,1,.91-.15c.22.07.45.24.45.48"/><path class="cls-2" d="M6.69,6.45c.08,0,.15.09.1.16a.18.18,0,0,1-.23.06.31.31,0,0,1-.23-.26.28.28,0,0,1,.18-.3.25.25,0,0,1,.29.17c0,.12-.1.26-.22.23a.18.18,0,0,1-.1-.29.28.28,0,0,1,.2-.06.48.48,0,0,1,.46.24.36.36,0,0,1-.25.45.54.54,0,0,1-.51-.21,1,1,0,0,1-.14-.55.42.42,0,0,1,.14-.33.48.48,0,0,1,.45,0c.19.06.42.16.46.36a.49.49,0,0,1-.07.31.84.84,0,0,1-.29.33.45.45,0,0,1-.42,0,.53.53,0,0,1-.14-.12.6.6,0,0,1-.22-.56c0-.2.27-.31.46-.38a.12.12,0,0,1,.1,0,.2.2,0,0,1,.08.1A1.52,1.52,0,0,1,7,6.39a.51.51,0,0,1-.31.5.69.69,0,0,1-.4,0A.49.49,0,0,1,6,6.68a.53.53,0,0,1,0-.28.88.88,0,0,1,.3-.68.84.84,0,0,1,.28-.09,1,1,0,0,1,.59.06.67.67,0,0,1,.31.74A.81.81,0,0,1,6.82,7,1.1,1.1,0,0,1,6,6.88a.7.7,0,0,1-.19-.15.66.66,0,0,1-.09-.28,1,1,0,0,1,.4-.82A1.12,1.12,0,0,1,7,5.48c.22.07.45.24.45.48"/><path class="cls-2" d="M6.16,24.1s0,0,0,0a.07.07,0,0,1-.08,0A.12.12,0,0,1,6,24.08.11.11,0,0,1,6.1,24a.09.09,0,0,1,.1.06s0,.09-.08.08a.06.06,0,0,1,0-.1.08.08,0,0,1,.07,0,.15.15,0,0,1,.15.08.11.11,0,0,1-.08.15.16.16,0,0,1-.17-.07A.25.25,0,0,1,6,24a.14.14,0,0,1,0-.11.18.18,0,0,1,.16,0c.06,0,.14.05.15.12a.14.14,0,0,1,0,.11.21.21,0,0,1-.1.11.14.14,0,0,1-.14,0l0,0A.21.21,0,0,1,6,24a.23.23,0,0,1,.16-.13h0l0,0a.51.51,0,0,1,.06.21.18.18,0,0,1-.11.17.29.29,0,0,1-.13,0,.17.17,0,0,1-.11-.06.17.17,0,0,1,0-.1c0-.09,0-.19.1-.23a.17.17,0,0,1,.1,0,.27.27,0,0,1,.2,0,.22.22,0,0,1,.11.25.33.33,0,0,1-.2.2.42.42,0,0,1-.29-.05.15.15,0,0,1-.06,0,.25.25,0,0,1,0-.09A.34.34,0,0,1,6,23.82a.35.35,0,0,1,.31-.05c.08,0,.16.08.16.16"/><path class="cls-2" d="M9.54,11.57s.05,0,0,0-.05,0-.08,0a.11.11,0,0,1-.08-.09.1.1,0,0,1,.06-.1.09.09,0,0,1,.1.06s0,.09-.07.08-.07-.07,0-.1a.1.1,0,0,1,.07,0c.07,0,.14,0,.16.08a.11.11,0,0,1-.09.15.17.17,0,0,1-.17-.07.3.3,0,0,1,0-.19s0-.09,0-.11a.16.16,0,0,1,.15,0c.07,0,.15.05.16.12a.14.14,0,0,1,0,.11.36.36,0,0,1-.1.11.14.14,0,0,1-.14,0l-.05,0a.21.21,0,0,1-.08-.19.21.21,0,0,1,.16-.13h0l0,0a.51.51,0,0,1,.06.21.16.16,0,0,1-.1.17.34.34,0,0,1-.14,0,.24.24,0,0,1-.11-.06.17.17,0,0,1,0-.1c0-.09,0-.19.1-.23a.16.16,0,0,1,.09,0,.31.31,0,0,1,.21,0,.22.22,0,0,1,.1.25.29.29,0,0,1-.2.2.39.39,0,0,1-.28,0,.18.18,0,0,1-.07-.05.14.14,0,0,1,0-.09.31.31,0,0,1,.14-.28.34.34,0,0,1,.31,0,.18.18,0,0,1,.15.16"/><path class="cls-2" d="M14.77,12.44s.05,0,0,.06a.07.07,0,0,1-.08,0,.12.12,0,0,1-.08-.09.09.09,0,0,1,.06-.1.07.07,0,0,1,.1.05s0,.09-.07.08a.07.07,0,0,1,0-.1l.07,0a.17.17,0,0,1,.16.08.12.12,0,0,1-.09.16.19.19,0,0,1-.17-.07.34.34,0,0,1-.05-.19.22.22,0,0,1,.05-.12s.1,0,.15,0,.15.06.16.13,0,.07,0,.1a.4.4,0,0,1-.1.12.14.14,0,0,1-.14,0,.1.1,0,0,1-.05,0,.21.21,0,0,1-.08-.19c0-.07.09-.1.16-.13h0a0,0,0,0,1,0,0,.47.47,0,0,1,.06.2.16.16,0,0,1-.1.17s-.09,0-.14,0a.17.17,0,0,1-.11-.06.17.17,0,0,1,0-.1.33.33,0,0,1,.1-.23l.09,0a.38.38,0,0,1,.21,0,.23.23,0,0,1,.1.25.27.27,0,0,1-.2.2.35.35,0,0,1-.28,0,.18.18,0,0,1-.07-.05.17.17,0,0,1,0-.1.31.31,0,0,1,.14-.28.37.37,0,0,1,.31-.05.18.18,0,0,1,.15.16"/><path class="cls-2" d="M8.68,19.11s.05,0,0,.06a.08.08,0,0,1-.08,0s-.08-.05-.08-.09A.1.1,0,0,1,8.62,19a.09.09,0,0,1,.1.06.07.07,0,0,1-.08.08.06.06,0,0,1,0-.1l.07,0a.17.17,0,0,1,.16.08.13.13,0,0,1-.09.16.18.18,0,0,1-.17-.08A.29.29,0,0,1,8.53,19a.13.13,0,0,1,.05-.12s.1,0,.15,0a.21.21,0,0,1,.16.13.13.13,0,0,1,0,.1.2.2,0,0,1-.09.11.14.14,0,0,1-.15,0l0,0A.2.2,0,0,1,8.5,19c0-.07.09-.1.16-.13h0l0,0a.47.47,0,0,1,.06.2.18.18,0,0,1-.1.17.32.32,0,0,1-.14,0s-.09,0-.11-.06a.31.31,0,0,1,0-.1.3.3,0,0,1,.11-.23.14.14,0,0,1,.09,0,.34.34,0,0,1,.2,0,.23.23,0,0,1,.11.25.29.29,0,0,1-.2.2.37.37,0,0,1-.29,0l-.06-.05a.19.19,0,0,1,0-.1.31.31,0,0,1,.13-.28.4.4,0,0,1,.32,0c.07,0,.15.08.15.16"/><path class="cls-2" d="M7.82,3.75a0,0,0,0,1,0,0s0,0-.07,0a.12.12,0,0,1-.09-.09.1.1,0,0,1,.07-.1.08.08,0,0,1,.1.06.09.09,0,0,1-.08.08.06.06,0,0,1,0-.1s0,0,.07,0A.15.15,0,0,1,8,3.73a.12.12,0,0,1-.08.15.18.18,0,0,1-.18-.07.25.25,0,0,1,0-.19.14.14,0,0,1,0-.11.18.18,0,0,1,.16,0c.06,0,.14.05.15.12a.14.14,0,0,1,0,.11.26.26,0,0,1-.1.11.14.14,0,0,1-.14,0l0,0a.21.21,0,0,1-.08-.19.25.25,0,0,1,.16-.14h0s0,0,0,0a.53.53,0,0,1,.07.2.19.19,0,0,1-.11.18.29.29,0,0,1-.13,0,.14.14,0,0,1-.11-.07.09.09,0,0,1,0-.09c0-.09,0-.19.1-.23l.1,0a.35.35,0,0,1,.2,0,.24.24,0,0,1,.11.26.32.32,0,0,1-.21.2.39.39,0,0,1-.28,0,.15.15,0,0,1-.06-.05.18.18,0,0,1,0-.09.34.34,0,0,1,.14-.29.42.42,0,0,1,.31,0c.08,0,.16.09.15.17"/><path class="cls-2" d="M7.5,9s0,0,0,.05a.06.06,0,0,1-.08,0A.1.1,0,0,1,7.38,9a.08.08,0,0,1,.16,0,.07.07,0,0,1-.08.08.06.06,0,0,1,0-.1.08.08,0,0,1,.07,0A.17.17,0,0,1,7.66,9a.13.13,0,0,1-.09.15A.15.15,0,0,1,7.4,9.1a.3.3,0,0,1-.05-.19A.12.12,0,0,1,7.4,8.8a.16.16,0,0,1,.15,0c.07,0,.14,0,.16.12a.2.2,0,0,1,0,.11.24.24,0,0,1-.09.11.16.16,0,0,1-.15,0l-.05,0a.2.2,0,0,1-.07-.19c0-.07.09-.11.15-.13h0l0,0A.51.51,0,0,1,7.6,9a.18.18,0,0,1-.1.17.32.32,0,0,1-.14,0,.2.2,0,0,1-.11-.06.17.17,0,0,1,0-.1c0-.09,0-.19.11-.23a.14.14,0,0,1,.09,0,.27.27,0,0,1,.2,0A.22.22,0,0,1,7.75,9a.31.31,0,0,1-.2.2.48.48,0,0,1-.29,0L7.2,9.13a.14.14,0,0,1,0-.09.31.31,0,0,1,.13-.28.35.35,0,0,1,.31,0c.08,0,.16.08.16.16"/><path class="cls-2" d="M11.31,6.59s0,0,0,0a.06.06,0,0,1-.08,0,.11.11,0,0,1-.08-.09.08.08,0,0,1,.16,0s0,.09-.07.08a.06.06,0,0,1,0-.1.1.1,0,0,1,.07,0,.17.17,0,0,1,.16.08.12.12,0,0,1-.09.15.17.17,0,0,1-.17-.07.3.3,0,0,1-.05-.19.12.12,0,0,1,.05-.11.16.16,0,0,1,.15,0c.07,0,.14.05.16.12a.14.14,0,0,1,0,.11.24.24,0,0,1-.09.11.16.16,0,0,1-.15,0l-.05,0a.2.2,0,0,1-.07-.19.21.21,0,0,1,.16-.13h0s0,0,0,0a.51.51,0,0,1,.06.21.18.18,0,0,1-.1.17.33.33,0,0,1-.14,0,.2.2,0,0,1-.11-.06.34.34,0,0,1,0-.1c0-.09,0-.19.11-.23a.14.14,0,0,1,.09,0,.27.27,0,0,1,.2,0,.24.24,0,0,1,.11.26.31.31,0,0,1-.2.2.42.42,0,0,1-.29,0L11,6.68a.16.16,0,0,1,0-.09.31.31,0,0,1,.13-.28.4.4,0,0,1,.32-.06c.07,0,.15.09.15.17"/><path class="cls-3" d="M21.68,6.21a21.26,21.26,0,0,1-4.51,8c-7.32,8.24-8.88,15-8.88,15L1.56,26.8S4.67,20.56,4.22,9.55c0,0-.26-5.1,1.79-8.93L22,6.31"/></g></g></svg>