<svg xmlns="http://www.w3.org/2000/svg" viewBox="0 0 46.68 53.9"><defs><style>.cls-1{fill:#212121;}.cls-2{fill:#fff;}</style></defs><g id="Layer_2" data-name="Layer 2"><g id="Layer_1-2" data-name="Layer 1"><polygon class="cls-1" points="46.68 40.42 46.68 13.47 23.34 0 0 13.47 0 40.42 23.34 53.9 46.68 40.42"/><path class="cls-2" d="M15.49,24.12h1l1.37,5h.09l1.34-5h.65l-1.54,5.66h-1L16,24.71h-.08l-1.37,5.07h-1L12,24.12h.66l1.36,5h.08Z"/><path class="cls-2" d="M21.86,29.78V24.12h.61v5.66Z"/><path class="cls-2" d="M28.47,29.78l-3-4.62v4.62h-.62V24.12h.61l3,4.63V24.12h.62v5.66Z"/><path class="cls-2" d="M31.29,29.78V24.12h3.28v.56H31.91v2h2.27v.56H31.91v2h2.73v.56Z"/></g></g></svg>