<svg xmlns="http://www.w3.org/2000/svg" viewBox="0 0 228.91 169.2"><defs><style>.cls-1{fill:#212121;}.cls-2{fill:#ffc91e;}.cls-3{fill:#fff;}</style></defs><g id="Layer_2" data-name="Layer 2"><g id="Layer_1-2" data-name="Layer 1"><polygon class="cls-1" points="59.04 33.08 59.04 49.65 82.53 61.25 82.53 21.49 59.04 33.08"/><polygon class="cls-1" points="112.5 0 85.53 20.75 85.53 62.24 112.5 82.98 139.47 62.24 139.47 20.75 112.5 0"/><polygon class="cls-2" points="68.47 49.18 65.42 49.18 65.42 33.55 70.81 33.55 70.81 36.28 68.47 36.28 68.47 49.18"/><path class="cls-2" d="M76.15,39.49A3.37,3.37,0,0,1,72.82,43H69.15V40.23h2.22c1.45,0,1.73-.71,1.73-1.8v-.51c0-1-.28-1.59-1.62-1.64V33.55h1.34A3.35,3.35,0,0,1,76.15,37Z"/><polygon class="cls-2" points="107.87 64.75 92.99 21.23 102.27 21.23 115.21 64.75 107.87 64.75"/><polygon class="cls-2" points="117.14 64.75 113.53 52.52 122.74 21.23 132.01 21.23 117.14 64.75"/><polygon class="cls-1" points="142.52 21.49 142.52 61.25 166.01 49.65 166.01 33.08 142.52 21.49"/><polygon class="cls-2" points="153.06 49.18 148.64 49.18 148.64 33.47 153.94 33.47 153.94 36.22 151.71 36.22 151.71 46.42 153.06 46.42 153.06 49.18"/><path class="cls-2" d="M159.89,45.7a3.37,3.37,0,0,1-3.53,3.48h-2.63V46.42h1.14c1.47,0,2-.44,2-1.91V38.12c0-1.46-.51-1.9-2-1.9h-.25V33.47h1.69A3.42,3.42,0,0,1,159.89,37Z"/><path class="cls-2" d="M42.58,140.18c0,11.51-8.33,16.19-23.11,16.19-6.65,0-19.19-.94-19.19-.94v-11.6S11.42,145,18.16,145c10.2,0,12.07-2.52,12.07-6.92v-1.4c0-3.09-.56-5.9-6.18-6.65l-10.29-1.31c-8-1-13.76-7.11-13.76-16.29V107C0,96,8.33,91.05,22,91.05c5.34,0,13.85.75,17.5,1v12s-11.13-1.22-17.12-1.22c-7.68,0-10,2-10,6.18v1.59c0,3.08.56,6,6.09,6.64l10.66,1.31c8,1,13.48,6.74,13.48,15.35Z"/><path class="cls-2" d="M76.25,102.44v52.93H63.7V102.44H47.17V91.13H92.78v11.31Z"/><path class="cls-2" d="M167.41,156.43l-20.36-27h-1v27h-12.8V90.89h12.8v27.05h1l20.46-27h14.16l-24.24,32.48,24.73,33.06Z"/><path class="cls-2" d="M228.91,140c0,11.51-8.33,16.18-23.1,16.18-6.64,0-19.17-.94-19.17-.94V143.64s11.12,1.12,17.86,1.12c10.2,0,12.06-2.52,12.06-6.92v-1.4c0-3.09-.55-5.9-6.17-6.64l-10.29-1.31c-8-1-13.74-7.11-13.74-16.28v-5.42c0-10.94,8.32-15.9,22-15.9,5.33,0,13.84.75,17.49,1v12s-11.12-1.22-17.11-1.22c-7.67,0-10,2-10,6.18v1.58c0,3.09.56,6,6.08,6.65l10.66,1.31c8,1,13.47,6.73,13.47,15.33Z"/><path class="cls-3" d="M100.39,162.11a1.5,1.5,0,0,1,1.53,1.55v.85a.65.65,0,0,1-.06.3l-.8.79.93.91a.67.67,0,0,1,.06.3v.73a1.53,1.53,0,0,1-1.51,1.55H97.29v-7Zm.76,1.66c0-.65-.42-1-1.07-1h-2v2.45h2.33l.76-.74Zm.14,3.06-.9-.88H98.06v2.44h2.15c.66,0,1.08-.3,1.08-.95Z"/><path class="cls-3" d="M113.46,167h-3l-.7,2.07H109l2.41-7h1.2l2.4,7h-.8Zm-2.75-.7h2.51l-1.2-3.48h-.1Z"/><path class="cls-3" d="M126.48,164.46a1.52,1.52,0,0,1-1.06,1.49l1.6,3.14h-.84L124.61,166h-1.85v3.08H122v-7h3a1.5,1.5,0,0,1,1.53,1.55Zm-.76-.69c0-.65-.43-1-1.08-1h-1.88v2.52h1.91c.65,0,1-.3,1-.95Z"/><path class="cls-3" d="M141.76,164.72a.55.55,0,0,1-.07-.3v-.76c0-1,.51-1.67,1.94-1.67.76,0,1.77.12,1.77.12v.74a14.71,14.71,0,0,0-1.72-.12c-.84,0-1.22.26-1.22,1v.64l.87.84h3.9v.7h-1.11v1.59c0,.85-.58,1.66-2.23,1.66s-2.23-.81-2.23-1.66v-.72a.57.57,0,0,1,.07-.3l.92-.91Zm3.6,2.66V166h-2l-.9.88v.55c0,.65.45,1.12,1.46,1.12S145.36,168,145.36,167.38Z"/><path class="cls-3" d="M161.8,169.09v-7h.77v6.28h3.2v.7Z"/><path class="cls-3" d="M177.23,164.17V167c0,1.63-1.1,2.18-2.46,2.18s-2.45-.55-2.45-2.18v-2.85c0-1.63,1.11-2.18,2.45-2.18S177.23,162.54,177.23,164.17Zm-4.15.08v2.69a1.7,1.7,0,0,0,3.39,0v-2.69c0-1.09-.73-1.55-1.7-1.55S173.08,163.16,173.08,164.25Z"/><path class="cls-3" d="M184.66,167v-4.9h.76v4.82a1.7,1.7,0,0,0,3.39,0v-4.82h.76V167c0,1.59-1.09,2.19-2.45,2.19S184.66,168.6,184.66,167Z"/><path class="cls-3" d="M201.47,169.09l-3.71-5.7v5.7H197v-7h.75l3.72,5.71v-5.71h.77v7Z"/><path class="cls-3" d="M212.29,169.2c-1.36,0-2.63-.4-2.63-2.18v-2.85c0-1.77,1.27-2.18,2.63-2.18.55,0,1.13.07,1.64.12v.74a16.15,16.15,0,0,0-1.64-.12c-1.28,0-1.86.44-1.86,1.62v2.5c0,1.17.58,1.62,1.86,1.62a13.31,13.31,0,0,0,1.4-.1V166h-1.48v-.7h2.24V169S213,169.2,212.29,169.2Z"/><path class="cls-3" d="M221.82,169.09v-7h4.05v.69h-3.29v2.45h2.8v.7h-2.8v2.44H226v.7Z"/><path class="cls-2" d="M111.91,97.94l-7.47,22.92H98.28l10.25-29.73h1.14ZM111,91.13h5.63l10.24,29.73h-6.15l-2.47-7.57h-10l1.71-5.49h6.51Z"/><path class="cls-2" d="M108.75,143.93h-5.81v-8.88c0-7.57,5.59-9.28,11.35-9.28,2.37,0,5.67.31,7.82.48v5.32s-4.61-.52-7.56-.52c-5.14,0-5.8,1.93-5.8,6.94Zm13.45,12c-2.15.18-5.54.48-7.91.48-5.76,0-11.35-1.71-11.35-9.27v-1.94h5.81c0,4.27.74,6,5.8,6,3,0,7.65-.53,7.65-.53Z"/></g></g></svg>